<svg width="200" height="95" viewBox="0 0 200 95" fill="none" xmlns="http://www.w3.org/2000/svg"><rect width="200" height="95" fill="#FCFCFD"/><rect width="161" height="62" transform="translate(20 17)" fill="#273B91"/><path d="M31.704 39.864H34.872L42.696 52.488H42.744V39.864H45.6V57H42.432L34.632 44.4H34.56V57H31.704V39.864ZM59.1523 54.24C59.1523 54.576 59.1923 54.816 59.2723 54.96C59.3683 55.104 59.5443 55.176 59.8003 55.176C59.8803 55.176 59.9763 55.176 60.0883 55.176C60.2003 55.176 60.3283 55.16 60.4723 55.128V57.024C60.3763 57.056 60.2483 57.088 60.0883 57.12C59.9443 57.168 59.7923 57.208 59.6323 57.24C59.4723 57.272 59.3123 57.296 59.1523 57.312C58.9923 57.328 58.8563 57.336 58.7443 57.336C58.1843 57.336 57.7203 57.224 57.3523 57C56.9843 56.776 56.7443 56.384 56.6323 55.824C56.0883 56.352 55.4163 56.736 54.6163 56.976C53.8323 57.216 53.0723 57.336 52.3363 57.336C51.7763 57.336 51.2403 57.256 50.7283 57.096C50.2163 56.952 49.7603 56.736 49.3603 56.448C48.9763 56.144 48.6643 55.768 48.4243 55.32C48.2003 54.856 48.0883 54.32 48.0883 53.712C48.0883 52.944 48.2243 52.32 48.4963 51.84C48.7843 51.36 49.1523 50.984 49.6003 50.712C50.0643 50.44 50.5763 50.248 51.1363 50.136C51.7123 50.008 52.2883 49.912 52.8643 49.848C53.3603 49.752 53.8323 49.688 54.2803 49.656C54.7283 49.608 55.1203 49.536 55.4563 49.44C55.8083 49.344 56.0803 49.2 56.2723 49.008C56.4803 48.8 56.5843 48.496 56.5843 48.096C56.5843 47.744 56.4963 47.456 56.3203 47.232C56.1603 47.008 55.9523 46.84 55.6963 46.728C55.4563 46.6 55.1843 46.52 54.8803 46.488C54.5763 46.44 54.2883 46.416 54.0163 46.416C53.2483 46.416 52.6163 46.576 52.1203 46.896C51.6243 47.216 51.3443 47.712 51.2803 48.384H48.5443C48.5923 47.584 48.7843 46.92 49.1203 46.392C49.4563 45.864 49.8803 45.44 50.3923 45.12C50.9203 44.8 51.5123 44.576 52.1683 44.448C52.8243 44.32 53.4963 44.256 54.1843 44.256C54.7923 44.256 55.3923 44.32 55.9843 44.448C56.5763 44.576 57.1043 44.784 57.5683 45.072C58.0483 45.36 58.4323 45.736 58.7203 46.2C59.0083 46.648 59.1523 47.2 59.1523 47.856V54.24ZM56.4163 50.784C56.0003 51.056 55.4883 51.224 54.8803 51.288C54.2723 51.336 53.6643 51.416 53.0563 51.528C52.7683 51.576 52.4883 51.648 52.2163 51.744C51.9443 51.824 51.7043 51.944 51.4963 52.104C51.2883 52.248 51.1203 52.448 50.9923 52.704C50.8803 52.944 50.8243 53.24 50.8243 53.592C50.8243 53.896 50.9123 54.152 51.0883 54.36C51.2643 54.568 51.4723 54.736 51.7123 54.864C51.9683 54.976 52.2403 55.056 52.5283 55.104C52.8323 55.152 53.1043 55.176 53.3443 55.176C53.6483 55.176 53.9763 55.136 54.3283 55.056C54.6803 54.976 55.0083 54.84 55.3123 54.648C55.6323 54.456 55.8963 54.216 56.1043 53.928C56.3123 53.624 56.4163 53.256 56.4163 52.824V50.784ZM62.1683 39.864H64.9043V42.456H62.1683V39.864ZM62.1683 44.592H64.9043V57H62.1683V44.592ZM67.8853 44.592H70.4533V46.992H70.5013C70.5813 46.656 70.7333 46.328 70.9573 46.008C71.1973 45.688 71.4773 45.4 71.7973 45.144C72.1333 44.872 72.5013 44.656 72.9013 44.496C73.3013 44.336 73.7093 44.256 74.1253 44.256C74.4453 44.256 74.6613 44.264 74.7733 44.28C74.9013 44.296 75.0293 44.312 75.1573 44.328V46.968C74.9653 46.936 74.7653 46.912 74.5573 46.896C74.3653 46.864 74.1733 46.848 73.9813 46.848C73.5173 46.848 73.0773 46.944 72.6613 47.136C72.2613 47.312 71.9093 47.584 71.6053 47.952C71.3013 48.304 71.0613 48.744 70.8853 49.272C70.7093 49.8 70.6213 50.408 70.6213 51.096V57H67.8853V44.592ZM86.7148 54.24C86.7148 54.576 86.7548 54.816 86.8348 54.96C86.9308 55.104 87.1068 55.176 87.3628 55.176C87.4428 55.176 87.5388 55.176 87.6508 55.176C87.7628 55.176 87.8908 55.16 88.0348 55.128V57.024C87.9388 57.056 87.8108 57.088 87.6508 57.12C87.5068 57.168 87.3548 57.208 87.1948 57.24C87.0348 57.272 86.8748 57.296 86.7148 57.312C86.5548 57.328 86.4188 57.336 86.3068 57.336C85.7468 57.336 85.2828 57.224 84.9148 57C84.5468 56.776 84.3068 56.384 84.1948 55.824C83.6508 56.352 82.9788 56.736 82.1788 56.976C81.3948 57.216 80.6348 57.336 79.8988 57.336C79.3388 57.336 78.8028 57.256 78.2908 57.096C77.7788 56.952 77.3228 56.736 76.9228 56.448C76.5388 56.144 76.2268 55.768 75.9868 55.32C75.7628 54.856 75.6508 54.32 75.6508 53.712C75.6508 52.944 75.7868 52.32 76.0588 51.84C76.3468 51.36 76.7148 50.984 77.1628 50.712C77.6268 50.44 78.1388 50.248 78.6988 50.136C79.2748 50.008 79.8508 49.912 80.4268 49.848C80.9228 49.752 81.3948 49.688 81.8428 49.656C82.2908 49.608 82.6828 49.536 83.0188 49.44C83.3708 49.344 83.6428 49.2 83.8348 49.008C84.0428 48.8 84.1468 48.496 84.1468 48.096C84.1468 47.744 84.0588 47.456 83.8828 47.232C83.7228 47.008 83.5148 46.84 83.2588 46.728C83.0188 46.6 82.7468 46.52 82.4428 46.488C82.1388 46.44 81.8508 46.416 81.5788 46.416C80.8108 46.416 80.1788 46.576 79.6828 46.896C79.1868 47.216 78.9068 47.712 78.8428 48.384H76.1068C76.1548 47.584 76.3468 46.92 76.6828 46.392C77.0188 45.864 77.4428 45.44 77.9548 45.12C78.4828 44.8 79.0748 44.576 79.7308 44.448C80.3868 44.32 81.0588 44.256 81.7468 44.256C82.3548 44.256 82.9548 44.32 83.5468 44.448C84.1388 44.576 84.6668 44.784 85.1308 45.072C85.6108 45.36 85.9948 45.736 86.2828 46.2C86.5708 46.648 86.7148 47.2 86.7148 47.856V54.24ZM83.9788 50.784C83.5628 51.056 83.0508 51.224 82.4428 51.288C81.8348 51.336 81.2268 51.416 80.6188 51.528C80.3308 51.576 80.0508 51.648 79.7788 51.744C79.5068 51.824 79.2668 51.944 79.0588 52.104C78.8508 52.248 78.6828 52.448 78.5548 52.704C78.4428 52.944 78.3868 53.24 78.3868 53.592C78.3868 53.896 78.4748 54.152 78.6508 54.36C78.8268 54.568 79.0348 54.736 79.2748 54.864C79.5308 54.976 79.8028 55.056 80.0908 55.104C80.3948 55.152 80.6668 55.176 80.9068 55.176C81.2108 55.176 81.5388 55.136 81.8908 55.056C82.2428 54.976 82.5708 54.84 82.8748 54.648C83.1948 54.456 83.4588 54.216 83.6668 53.928C83.8748 53.624 83.9788 53.256 83.9788 52.824V50.784ZM89.6588 44.592H92.2508V46.32H92.3228C92.5308 46.016 92.7548 45.736 92.9948 45.48C93.2348 45.224 93.4988 45.008 93.7868 44.832C94.0908 44.656 94.4348 44.52 94.8188 44.424C95.2028 44.312 95.6428 44.256 96.1388 44.256C96.8908 44.256 97.5868 44.424 98.2268 44.76C98.8828 45.096 99.3468 45.616 99.6188 46.32C100.083 45.68 100.619 45.176 101.227 44.808C101.835 44.44 102.595 44.256 103.507 44.256C104.819 44.256 105.835 44.576 106.555 45.216C107.291 45.856 107.659 46.928 107.659 48.432V57H104.923V49.752C104.923 49.256 104.907 48.808 104.875 48.408C104.843 47.992 104.747 47.64 104.587 47.352C104.443 47.048 104.219 46.816 103.915 46.656C103.611 46.496 103.195 46.416 102.667 46.416C101.739 46.416 101.067 46.704 100.651 47.28C100.235 47.856 100.027 48.672 100.027 49.728V57H97.2908V49.032C97.2908 48.168 97.1308 47.52 96.8108 47.088C96.5068 46.64 95.9388 46.416 95.1068 46.416C94.7548 46.416 94.4108 46.488 94.0748 46.632C93.7548 46.776 93.4668 46.984 93.2108 47.256C92.9708 47.528 92.7708 47.864 92.6108 48.264C92.4668 48.664 92.3948 49.12 92.3948 49.632V57H89.6588V44.592ZM119.062 49.704C119.03 49.272 118.934 48.856 118.774 48.456C118.63 48.056 118.422 47.712 118.15 47.424C117.894 47.12 117.574 46.88 117.19 46.704C116.822 46.512 116.406 46.416 115.942 46.416C115.462 46.416 115.022 46.504 114.622 46.68C114.238 46.84 113.902 47.072 113.614 47.376C113.342 47.664 113.118 48.008 112.942 48.408C112.782 48.808 112.694 49.24 112.678 49.704H119.062ZM112.678 51.504C112.678 51.984 112.742 52.448 112.87 52.896C113.014 53.344 113.222 53.736 113.494 54.072C113.766 54.408 114.11 54.68 114.526 54.888C114.942 55.08 115.438 55.176 116.014 55.176C116.814 55.176 117.454 55.008 117.934 54.672C118.43 54.32 118.798 53.8 119.038 53.112H121.63C121.486 53.784 121.238 54.384 120.886 54.912C120.534 55.44 120.11 55.888 119.614 56.256C119.118 56.608 118.558 56.872 117.934 57.048C117.326 57.24 116.686 57.336 116.014 57.336C115.038 57.336 114.174 57.176 113.422 56.856C112.67 56.536 112.03 56.088 111.502 55.512C110.99 54.936 110.598 54.248 110.326 53.448C110.07 52.648 109.942 51.768 109.942 50.808C109.942 49.928 110.078 49.096 110.35 48.312C110.638 47.512 111.038 46.816 111.55 46.224C112.078 45.616 112.71 45.136 113.446 44.784C114.182 44.432 115.014 44.256 115.942 44.256C116.918 44.256 117.79 44.464 118.558 44.88C119.342 45.28 119.99 45.816 120.502 46.488C121.014 47.16 121.382 47.936 121.606 48.816C121.846 49.68 121.91 50.576 121.798 51.504H112.678ZM122.63 44.592H124.694V40.872H127.43V44.592H129.902V46.632H127.43V53.256C127.43 53.544 127.438 53.792 127.454 54C127.486 54.208 127.542 54.384 127.622 54.528C127.718 54.672 127.854 54.784 128.03 54.864C128.206 54.928 128.446 54.96 128.75 54.96C128.942 54.96 129.134 54.96 129.326 54.96C129.518 54.944 129.71 54.912 129.902 54.864V56.976C129.598 57.008 129.302 57.04 129.014 57.072C128.726 57.104 128.43 57.12 128.126 57.12C127.406 57.12 126.822 57.056 126.374 56.928C125.942 56.784 125.598 56.584 125.342 56.328C125.102 56.056 124.934 55.72 124.838 55.32C124.758 54.92 124.71 54.464 124.694 53.952V46.632H122.63V44.592ZM131.87 44.592H134.438V46.992H134.486C134.566 46.656 134.718 46.328 134.942 46.008C135.182 45.688 135.462 45.4 135.782 45.144C136.118 44.872 136.486 44.656 136.886 44.496C137.286 44.336 137.694 44.256 138.11 44.256C138.43 44.256 138.646 44.264 138.758 44.28C138.886 44.296 139.014 44.312 139.142 44.328V46.968C138.95 46.936 138.75 46.912 138.542 46.896C138.35 46.864 138.158 46.848 137.966 46.848C137.502 46.848 137.062 46.944 136.646 47.136C136.246 47.312 135.894 47.584 135.59 47.952C135.286 48.304 135.046 48.744 134.87 49.272C134.694 49.8 134.606 50.408 134.606 51.096V57H131.87V44.592ZM140.379 39.864H143.115V42.456H140.379V39.864ZM140.379 44.592H143.115V57H140.379V44.592ZM154.472 48.744C154.36 47.976 154.048 47.4 153.536 47.016C153.04 46.616 152.408 46.416 151.64 46.416C151.288 46.416 150.912 46.48 150.512 46.608C150.112 46.72 149.744 46.944 149.408 47.28C149.072 47.6 148.792 48.056 148.568 48.648C148.344 49.224 148.232 49.984 148.232 50.928C148.232 51.44 148.288 51.952 148.4 52.464C148.528 52.976 148.72 53.432 148.976 53.832C149.248 54.232 149.592 54.56 150.008 54.816C150.424 55.056 150.928 55.176 151.52 55.176C152.32 55.176 152.976 54.928 153.488 54.432C154.016 53.936 154.344 53.24 154.472 52.344H157.208C156.952 53.96 156.336 55.2 155.36 56.064C154.4 56.912 153.12 57.336 151.52 57.336C150.544 57.336 149.68 57.176 148.928 56.856C148.192 56.52 147.568 56.072 147.056 55.512C146.544 54.936 146.152 54.256 145.88 53.472C145.624 52.688 145.496 51.84 145.496 50.928C145.496 50 145.624 49.128 145.88 48.312C146.136 47.496 146.52 46.792 147.032 46.2C147.544 45.592 148.176 45.12 148.928 44.784C149.696 44.432 150.592 44.256 151.616 44.256C152.336 44.256 153.016 44.352 153.656 44.544C154.312 44.72 154.888 44.992 155.384 45.36C155.896 45.728 156.312 46.192 156.632 46.752C156.952 47.312 157.144 47.976 157.208 48.744H154.472ZM161.496 53.016C161.576 53.816 161.88 54.376 162.408 54.696C162.936 55.016 163.568 55.176 164.304 55.176C164.56 55.176 164.848 55.16 165.168 55.128C165.504 55.08 165.816 55 166.104 54.888C166.392 54.776 166.624 54.616 166.8 54.408C166.992 54.184 167.08 53.896 167.064 53.544C167.048 53.192 166.92 52.904 166.68 52.68C166.44 52.456 166.128 52.28 165.744 52.152C165.376 52.008 164.952 51.888 164.472 51.792C163.992 51.696 163.504 51.592 163.008 51.48C162.496 51.368 162 51.232 161.52 51.072C161.056 50.912 160.632 50.696 160.248 50.424C159.88 50.152 159.584 49.808 159.36 49.392C159.136 48.96 159.024 48.432 159.024 47.808C159.024 47.136 159.184 46.576 159.504 46.128C159.84 45.664 160.256 45.296 160.752 45.024C161.264 44.736 161.824 44.536 162.432 44.424C163.056 44.312 163.648 44.256 164.208 44.256C164.848 44.256 165.456 44.328 166.032 44.472C166.624 44.6 167.152 44.816 167.616 45.12C168.096 45.424 168.488 45.824 168.792 46.32C169.112 46.8 169.312 47.384 169.392 48.072H166.536C166.408 47.416 166.104 46.976 165.624 46.752C165.16 46.528 164.624 46.416 164.016 46.416C163.824 46.416 163.592 46.432 163.32 46.464C163.064 46.496 162.816 46.56 162.576 46.656C162.352 46.736 162.16 46.864 162 47.04C161.84 47.2 161.76 47.416 161.76 47.688C161.76 48.024 161.872 48.296 162.096 48.504C162.336 48.712 162.64 48.888 163.008 49.032C163.392 49.16 163.824 49.272 164.304 49.368C164.784 49.464 165.28 49.568 165.792 49.68C166.288 49.792 166.776 49.928 167.256 50.088C167.736 50.248 168.16 50.464 168.528 50.736C168.912 51.008 169.216 51.352 169.44 51.768C169.68 52.184 169.8 52.696 169.8 53.304C169.8 54.04 169.632 54.664 169.296 55.176C168.96 55.688 168.52 56.104 167.976 56.424C167.448 56.744 166.856 56.976 166.2 57.12C165.544 57.264 164.896 57.336 164.256 57.336C163.472 57.336 162.744 57.248 162.072 57.072C161.416 56.896 160.84 56.632 160.344 56.28C159.864 55.912 159.48 55.464 159.192 54.936C158.92 54.392 158.776 53.752 158.76 53.016H161.496Z" fill="white"/></svg>