<svg width="200" height="188" viewBox="0 0 200 188" fill="none" xmlns="http://www.w3.org/2000/svg"><rect y="46" width="200" height="95" fill="#FCFCFD"/><path d="M16.1818 93.8385C16.4312 93.6623 16.4799 93.5385 16.2305 93.3379C14.5843 92.0666 12.9118 90.7935 11.2899 89.496C10.643 88.9729 9.9193 88.5229 9.3193 87.9004H9.29492V99.0773H9.3193C9.51992 98.9029 9.74305 98.7285 9.94367 98.5541C12.0062 97.0073 14.0855 95.4098 16.1818 93.8385Z" fill="#292525"/><path d="M191.079 75.1492C191.079 74.7742 191.004 74.6992 190.629 74.6992H8.86992C8.49492 74.6992 8.41992 74.7742 8.41992 75.1492V83.5867V104.793V112.349C8.41992 112.724 8.49492 112.799 8.86992 112.799H190.604C190.979 112.799 191.052 112.724 191.052 112.349C191.079 99.9236 191.079 87.5486 191.079 75.1492ZM190.205 111.427C190.205 111.826 190.106 111.925 189.706 111.925H9.79242C9.3443 111.925 9.29367 111.775 9.29367 111.4V99.1267H9.2693V87.948H9.29367V76.098C9.29367 75.6986 9.39305 75.5973 9.79242 75.5973H189.706C190.106 75.5973 190.205 75.6723 190.205 76.098V111.427Z" fill="white"/><path d="M133.644 77.9437C133.644 77.295 133.644 77.295 133.02 77.295H12.5136C12.3388 77.3081 12.1634 77.3081 11.9886 77.295C11.7149 77.2706 11.6399 77.3962 11.6399 77.6456V87.1762C11.6301 87.2619 11.6433 87.3485 11.6783 87.4273C11.7132 87.5061 11.7686 87.5741 11.8386 87.6244C12.7124 88.2994 13.5861 88.9969 14.4636 89.67C16.1249 90.9675 17.8011 92.25 19.4736 93.5381C19.0255 93.8869 18.6261 94.2356 18.2005 94.56C16.1549 96.1069 14.0849 97.6537 12.0392 99.2006C11.7899 99.4012 11.6136 99.6 11.6399 99.975C11.6642 103.018 11.6642 106.087 11.6399 109.132C11.6399 109.605 11.7392 109.755 12.2624 109.755C52.5311 109.73 92.8086 109.73 133.095 109.755C133.569 109.755 133.669 109.631 133.669 109.181C133.644 98.8031 133.644 88.3687 133.644 77.9437ZM28.8055 101.471C27.8567 102.645 26.5555 103.144 25.1117 103.219C24.5361 103.247 23.959 103.214 23.3905 103.119C21.9692 102.919 20.578 103.093 19.1492 103.144H18.7255L18.4761 102.894C18.4635 102.822 18.48 102.747 18.5221 102.686C18.5642 102.625 18.6285 102.584 18.7011 102.57H18.7499C19.1249 102.546 19.5242 102.619 19.7736 102.27C20.0717 101.871 20.098 101.372 20.098 100.897C20.1467 99.675 20.1717 98.4525 20.173 97.23V86.3025C20.173 85.9781 20.1467 85.6294 20.1224 85.305C20.0717 84.5812 19.7474 84.2569 19.0255 84.1312L18.4499 84.0562C18.3017 84.0562 18.1517 84.0075 18.1517 83.8331C18.1517 83.6587 18.3017 83.5575 18.4761 83.5575H20.023C20.3211 83.5575 20.5967 83.5837 20.8967 83.5837H21.7686C22.9911 83.5837 24.2399 83.4337 25.4624 83.6325C27.9561 84.0075 28.8374 85.9781 28.6499 87.8494C28.5242 89.3494 27.8267 90.5944 26.7542 91.6162C26.4786 91.8656 26.4299 91.9669 26.8274 92.1656C30.6449 94.2112 30.9205 98.8781 28.7999 101.471M47.9999 84.0825C47.0286 84.2325 46.8524 84.3806 46.8036 85.3537C46.6292 87.9487 46.753 90.5194 46.7286 93.1144C46.7286 94.5112 46.7286 95.9081 46.528 97.305C46.3124 98.7525 45.9374 100.149 44.9999 101.347C43.5524 103.168 41.5817 103.642 39.3599 103.393C36.1424 103.044 34.7942 100.822 34.2711 98.2537C34.0587 97.1523 33.9582 96.0322 33.9711 94.9106V86.3269C33.9711 86.0775 33.9711 85.8037 33.9467 85.5544C33.8717 84.5306 33.5717 84.2325 32.5499 84.0825C32.3249 84.0562 31.9255 84.2062 31.9761 83.8069C32.0267 83.4075 32.3755 83.5837 32.6249 83.5837C34.3705 83.6081 36.118 83.6569 37.8636 83.5837L38.2874 83.6081L38.488 83.8575L38.2874 84.0825H38.2386C36.9149 84.4069 36.8905 84.4069 36.8155 85.7794C36.7667 86.7525 36.7667 87.6994 36.7911 88.6725C36.8155 91.4419 36.6655 94.1868 36.8905 96.9562C36.9655 98.0044 37.1399 99.0187 37.6405 99.9562C38.3642 101.269 39.4367 102.002 40.9836 101.951C42.5811 101.876 43.5786 101.004 44.203 99.6056C44.6774 98.5331 44.7524 97.3556 44.7767 96.2137C44.8011 95.3644 44.8011 94.5169 44.8011 93.6937V86.25C44.8051 86.0085 44.797 85.7669 44.7767 85.5262C44.6774 84.555 44.4017 84.255 43.4042 84.1294L43.1549 84.105C42.9805 84.105 42.8061 84.0544 42.8305 83.8312C42.8549 83.6081 43.0049 83.6062 43.1792 83.6062H43.2805C44.8274 83.6306 46.3986 83.655 47.9455 83.6062C48.1442 83.6062 48.4199 83.5556 48.4199 83.8556C48.4442 84.105 48.1705 84.0544 47.9942 84.0806M58.4492 101.893C58.101 102.31 57.6726 102.653 57.1895 102.901C56.7064 103.149 56.1784 103.298 55.6367 103.339C54.3149 103.489 53.0117 103.414 51.7705 102.939C51.0467 102.641 50.9717 102.542 50.9717 101.767C50.9961 100.642 51.0467 99.5175 51.0711 98.3925V98.25C51.1461 98.1 51.0711 97.8 51.3467 97.8262C51.6224 97.8525 51.5211 98.1 51.5211 98.25C51.549 98.7748 51.641 99.2943 51.7949 99.7969C52.0071 100.536 52.4814 101.172 53.1289 101.586C53.7764 102 54.5527 102.164 55.3124 102.047C56.6361 101.872 57.6092 100.601 57.6824 99.0281C57.7555 97.455 57.0842 96.3094 55.9367 95.3869C54.9636 94.5881 53.9155 93.8869 53.068 92.9662C51.4461 91.17 50.9474 89.0737 51.5961 86.7787C52.1699 84.7575 53.9661 83.4037 56.0624 83.2856C57.1173 83.2377 58.1734 83.3522 59.1936 83.625C59.5424 83.7244 59.6436 83.9006 59.6174 84.2494C59.593 84.7237 59.6174 85.2225 59.6174 85.6969H59.593C59.593 86.2706 59.6174 86.8444 59.593 87.4181C59.593 87.5925 59.6174 87.8662 59.3436 87.8662C59.0699 87.8662 59.1692 87.5925 59.1449 87.4181C59.0192 86.2931 58.6199 85.2975 57.523 84.8231C57.0469 84.5999 56.5184 84.5128 55.9959 84.5714C55.4733 84.63 54.9772 84.8319 54.5624 85.155C53.2892 86.1037 53.1899 88.2244 54.3636 89.5462C54.9617 90.2194 55.7099 90.7444 56.4261 91.2675C57.7742 92.265 59.0211 93.3637 59.5442 95.0175C60.3936 97.4869 60.2192 99.8325 58.4474 101.904M68.9267 103.151C68.5517 103.151 68.1523 103.176 67.7792 103.151C66.4836 103.052 65.1823 103.052 63.8867 103.151C63.6111 103.176 63.3373 103.151 63.0636 103.151C62.8892 103.151 62.7392 103.101 62.713 102.902C62.6867 102.703 62.8386 102.602 63.013 102.602C63.388 102.577 63.8117 102.652 64.0611 102.277C64.3105 101.902 64.3349 101.404 64.3611 100.931C64.4605 98.4937 64.4605 96.0412 64.4361 93.6187C64.4117 91.1962 64.4361 88.7775 64.4099 86.3587C64.4099 86.0587 64.3855 85.7587 64.3611 85.4344C64.2861 84.4875 64.0367 84.2381 63.1124 84.1125C62.9136 84.0881 62.638 84.1369 62.638 83.8387C62.638 83.5406 62.938 83.5894 63.1386 83.5894H68.3773C68.5761 83.5894 68.8517 83.5387 68.8517 83.8387C68.8517 84.1387 68.6024 84.0619 68.428 84.0881C67.4549 84.2381 67.303 84.4125 67.2299 85.3594C67.1792 85.8844 67.1549 86.3831 67.1549 86.9062V99.525C67.1549 100.125 67.2055 100.749 67.2299 101.347C67.2786 102.195 67.6048 102.519 68.4523 102.57H68.8761C69.0767 102.57 69.3505 102.57 69.3505 102.844C69.3505 103.117 69.1255 103.144 68.9267 103.144M88.4267 84.0562C87.2042 84.3056 87.1555 84.3319 87.0299 85.5562C86.8799 87.1275 86.9811 88.6987 86.9305 90.2719C86.8555 94.2637 86.8067 98.2312 86.7561 102.223V102.696C86.7055 102.945 86.7561 103.296 86.4561 103.395C86.1561 103.494 85.933 103.269 85.7586 103.071C85.333 102.572 84.9092 102.047 84.5098 101.548C81.2924 97.5562 78.073 93.5644 75.1348 89.3475L74.9361 89.0981C74.9361 90.7462 74.9099 92.3662 74.9361 93.9881C74.9849 96.1837 75.0598 98.3794 75.1105 100.575C75.1131 100.895 75.1547 101.214 75.2342 101.524C75.4086 102.274 75.6842 102.497 76.483 102.521L76.8074 102.547C76.9555 102.572 77.1317 102.596 77.1317 102.821C77.1317 103.046 76.9555 103.095 76.7567 103.095C76.4567 103.095 76.183 103.121 75.883 103.095C74.5611 102.971 73.258 103.071 71.9455 103.095C71.7449 103.095 71.4467 103.196 71.4205 102.846C71.3942 102.495 71.7205 102.547 71.9455 102.521C72.8436 102.472 73.093 102.272 73.1436 101.396C73.318 98.3531 73.2917 95.31 73.3424 92.2406C73.393 89.4712 73.4174 86.6775 73.4417 83.9081V83.7075C73.4924 83.5087 73.4924 83.2087 73.7417 83.1581C73.9911 83.1075 74.1411 83.3344 74.2648 83.5087C75.4874 85.1306 76.7024 86.7525 77.9586 88.3725C80.3773 91.4925 82.798 94.635 85.168 97.8037L85.2936 97.9537L85.3686 97.4794C85.318 93.6881 85.243 89.895 85.168 86.1037C85.16 85.7686 85.1267 85.4345 85.0686 85.1044C84.9449 84.3544 84.5942 84.1069 83.6717 84.0319C83.4467 84.0075 83.098 84.1312 83.098 83.7825C83.098 83.4337 83.4467 83.5331 83.6961 83.5331C85.1436 83.5575 86.6155 83.6081 88.063 83.5331H88.363L88.6367 83.7581C88.7361 83.9812 88.6124 84.0319 88.4361 84.0562M101.835 99.5756C101.819 100.587 101.728 101.596 101.561 102.594C101.486 103.044 101.261 103.243 100.787 103.243C99.6149 103.219 98.4411 103.243 97.2692 103.144C95.5967 102.994 93.8942 103.069 92.2292 103.168C92.0707 103.172 91.9121 103.164 91.7549 103.144L91.5561 102.919L91.7305 102.619L91.8805 102.57C93.028 102.345 93.178 102.195 93.2023 100.972C93.2523 99.5762 93.2774 98.1794 93.2774 96.7819V86.3775C93.2774 86.0287 93.253 85.6781 93.2267 85.3294C93.178 84.5794 92.8517 84.2569 92.1017 84.1575C91.9011 84.1312 91.6761 84.1069 91.4774 84.0825L91.2523 83.8819L91.453 83.6569C91.609 83.6286 91.767 83.6123 91.9255 83.6081C93.2736 83.6569 94.6199 83.7075 95.5686 83.6831H99.6111C100.095 83.6977 100.577 83.6214 101.032 83.4581C101.282 83.3587 101.432 83.4075 101.383 83.6831C101.207 84.8306 101.233 85.9781 101.083 87.1256C101.059 87.2512 101.032 87.45 100.834 87.4256C100.635 87.4012 100.708 87.225 100.684 87.1012C100.688 86.9427 100.679 86.7841 100.659 86.6269C100.485 85.6031 100.085 85.2787 99.0617 85.2037C98.1636 85.155 97.2655 85.1044 96.3673 85.1044C96.0936 85.1044 95.968 85.1794 95.968 85.4794V91.6425C95.968 91.8412 95.968 92.0175 96.2417 91.9912C97.3911 91.9669 98.563 91.9669 99.7105 91.9162C99.8974 91.9172 100.082 91.8723 100.247 91.7853C100.413 91.6983 100.554 91.572 100.659 91.4175L100.933 91.2169L101.059 91.5675C100.984 92.3906 100.909 93.1894 100.858 94.005C100.834 94.4287 100.809 94.8769 100.809 95.3025C100.809 95.4525 100.759 95.6269 100.609 95.6269C100.41 95.6269 100.434 95.4262 100.434 95.3025C100.284 93.6806 100.11 93.5062 98.4636 93.4275C97.7642 93.4012 97.0911 93.3769 96.4011 93.3262C96.1274 93.3262 96.0017 93.3769 96.0017 93.7012C96.0017 95.6981 95.9773 97.7175 96.028 99.7144C96.0524 101.012 96.6017 101.561 97.9236 101.636C98.4467 101.661 98.9473 101.661 99.4705 101.636C100.693 101.561 101.216 101.061 101.417 99.8644L101.492 99.4406C101.54 99.2906 101.492 99.015 101.741 99.0656C101.865 99.1406 101.84 99.39 101.84 99.5644M112.519 101.886C112.17 102.302 111.742 102.645 111.259 102.894C110.776 103.142 110.248 103.291 109.706 103.331C108.385 103.505 107.042 103.359 105.789 102.907C105.264 102.709 104.99 102.384 105.039 101.782C105.114 100.635 105.114 99.5119 105.14 98.3644V98.2162C105.214 98.0662 105.14 97.7662 105.414 97.7906C105.639 97.8169 105.589 98.0662 105.589 98.2162C105.605 98.7424 105.697 99.2634 105.862 99.7631C106.363 101.334 107.76 102.232 109.382 102.013C110.704 101.839 111.677 100.566 111.752 98.9943C111.827 97.4231 111.152 96.2756 109.98 95.3512C109.007 94.5525 107.959 93.8512 107.111 92.9325C105.514 91.185 105.039 89.1394 105.611 86.8687C106.112 84.8231 108.007 83.3512 110.128 83.2519C111.153 83.2089 112.178 83.3182 113.171 83.5762C113.57 83.6756 113.745 83.85 113.696 84.2737C113.671 84.739 113.671 85.2053 113.696 85.6706H113.645C113.645 86.2444 113.67 86.8181 113.645 87.3919C113.645 87.5419 113.67 87.8419 113.396 87.8419C113.122 87.8419 113.222 87.5681 113.197 87.3919C113.072 86.2669 112.672 85.2712 111.575 84.7987C111.097 84.5702 110.565 84.4797 110.038 84.5373C109.512 84.595 109.012 84.7985 108.594 85.125C107.323 86.0719 107.222 88.1925 108.395 89.5162C108.994 90.1894 109.742 90.7125 110.458 91.2375C111.806 92.235 113.053 93.3319 113.578 94.9875C114.45 97.4812 114.275 99.8269 112.504 101.899M124.954 101.872C124.604 102.3 124.172 102.653 123.684 102.911C123.195 103.169 122.66 103.326 122.109 103.372C120.79 103.541 119.45 103.392 118.2 102.937C117.677 102.739 117.401 102.414 117.45 101.812C117.525 100.665 117.525 99.5419 117.575 98.3944L117.6 98.1937C117.675 98.0437 117.624 97.7944 117.874 97.8187C118.074 97.8431 118.048 98.0419 118.048 98.2181C118.065 98.7602 118.158 99.2972 118.324 99.8137C118.822 101.385 120.219 102.285 121.841 102.064C123.154 101.889 124.136 100.616 124.211 99.045C124.286 97.4737 123.613 96.3244 122.439 95.4019C121.466 94.6031 120.42 93.9019 119.57 92.9812C117.973 91.2356 117.508 89.19 118.07 86.9194C118.569 84.8737 120.465 83.4 122.585 83.3006C123.613 83.2588 124.641 83.3681 125.636 83.625C126.011 83.7244 126.21 83.9006 126.159 84.3244C126.134 84.7896 126.134 85.2559 126.159 85.7212H126.109C126.109 86.295 126.135 86.8687 126.109 87.4425C126.109 87.6169 126.135 87.8925 125.859 87.8925C125.584 87.8925 125.685 87.6169 125.66 87.4425C125.535 86.3175 125.135 85.3219 124.039 84.8475C123.566 84.6224 123.041 84.5335 122.521 84.5908C122.001 84.6481 121.507 84.8493 121.095 85.1719C119.822 86.1206 119.722 88.2412 120.894 89.5631C121.494 90.2362 122.242 90.7612 122.966 91.2844C124.312 92.2575 125.535 93.3562 126.084 94.9781C126.883 97.4156 126.733 99.7687 124.959 101.863" fill="#EA2127"/><path d="M188.084 77.2949H135.316C134.691 77.2949 134.691 77.2949 134.691 77.9193V109.125C134.691 109.747 134.691 109.747 135.316 109.747H188.108C188.733 109.747 188.733 109.747 188.733 109.125V77.9699C188.757 77.2949 188.757 77.2949 188.084 77.2949ZM146.916 103.243C145.246 103.468 143.573 103.243 141.927 103.093C141.146 103.044 140.363 103.044 139.581 103.093C139.158 103.119 138.708 103.119 138.284 103.144C138.085 103.144 137.885 103.144 137.885 102.87C137.885 102.596 138.085 102.594 138.26 102.594C139.308 102.619 139.456 102.171 139.531 101.197C139.606 100.224 139.632 99.2756 139.632 98.3024V85.7287C139.581 84.5568 139.233 84.1818 138.085 84.1068L137.785 84.0824L137.536 83.833C137.536 83.683 137.66 83.608 137.785 83.5837L138.209 83.5574C139.506 83.5331 140.804 83.7074 142.176 83.5837C144.072 83.5837 146.069 83.458 148.015 83.7824C151.203 84.3318 153.278 86.1768 154.176 89.2705C155.251 92.8649 154.951 96.3581 152.954 99.5999C151.581 101.822 149.436 102.87 146.916 103.243ZM171.516 103.119C169.996 103.119 168.473 103.168 166.951 103.044C166.801 103.018 166.576 103.119 166.503 102.87C166.43 102.621 166.653 102.619 166.776 102.546C166.862 102.498 166.925 102.419 166.953 102.326C166.981 102.232 166.971 102.131 166.926 102.045C166.403 100.299 165.854 98.5537 165.329 96.8305C165.319 96.7888 165.3 96.7495 165.274 96.7153C165.248 96.681 165.216 96.6525 165.178 96.6315C165.141 96.6106 165.099 96.5976 165.056 96.5935C165.014 96.5893 164.97 96.5941 164.93 96.6074H160.415C160.216 96.6074 160.09 96.6318 160.015 96.8568C159.567 98.3774 158.967 99.8568 158.669 101.396C158.519 102.146 158.643 102.694 159.606 102.594C159.807 102.57 160.056 102.57 160.056 102.894C160.056 103.219 159.807 103.168 159.606 103.168C158.106 103.044 156.588 103.119 155.091 103.168C154.891 103.168 154.641 103.194 154.641 102.894C154.641 102.645 154.842 102.594 155.041 102.594C155.963 102.645 156.513 102.12 156.813 101.323C157.311 99.9749 157.76 98.6024 158.234 97.2562C159.734 92.8143 161.253 88.3987 162.751 83.9568C162.85 83.6568 162.901 83.2593 163.274 83.233C163.698 83.2087 163.748 83.6568 163.848 83.9568C165.62 89.1712 167.365 94.3612 169.137 99.5756C169.365 100.326 169.684 101.047 170.086 101.721C170.435 102.296 170.885 102.621 171.586 102.594C171.786 102.594 172.06 102.57 172.036 102.87C171.961 103.144 171.711 103.119 171.511 103.119M184.874 84.0824C184.497 84.1242 184.137 84.2574 183.824 84.4705C183.511 84.6836 183.255 84.9701 183.078 85.3049C181.731 87.5005 180.683 89.8199 179.585 92.1412C179.161 93.0131 178.686 93.8868 178.611 94.8843C178.587 95.2837 178.563 95.683 178.563 96.0824C178.587 97.8299 178.488 99.5756 178.638 101.323C178.713 102.221 179.037 102.519 179.95 102.57C180.142 102.566 180.333 102.574 180.524 102.594C180.698 102.619 180.848 102.694 180.848 102.894C180.834 102.973 180.789 103.043 180.724 103.089C180.659 103.136 180.579 103.155 180.5 103.144C179.975 103.144 179.476 103.168 178.953 103.119C177.505 102.969 176.058 103.119 174.61 103.144H174.235L173.986 102.894L174.209 102.619L174.485 102.594C175.283 102.546 175.581 102.296 175.632 101.497C175.758 99.3768 175.831 97.2562 175.656 95.1599C175.584 94.5012 175.381 93.8636 175.058 93.2849C173.911 90.9899 172.763 88.6687 171.59 86.3737C171.355 85.9014 171.079 85.4504 170.766 85.0255C170.604 84.7839 170.394 84.5775 170.15 84.419C169.906 84.2604 169.632 84.153 169.345 84.103C169.171 84.0787 168.995 84.0524 169.021 83.8293C169.047 83.6062 169.22 83.5799 169.42 83.5799C171.066 83.6287 172.688 83.6287 174.335 83.5799C174.485 83.5799 174.683 83.5799 174.71 83.7787C174.736 83.9774 174.56 84.0524 174.41 84.0787C173.986 84.1781 173.911 84.4781 174.035 84.8512L174.16 85.2262C175.332 87.7949 176.48 90.3412 177.702 93.0093C178.776 90.3149 180.14 87.9205 180.996 85.2749C181.221 84.553 181.146 84.4274 180.471 84.0524L180.297 83.7543L180.546 83.5799H180.696C182.093 83.6531 183.492 83.6287 184.889 83.5799C185.063 83.5799 185.238 83.5799 185.264 83.7787C185.24 84.0037 185.065 84.0524 184.865 84.0787" fill="#292525"/><path d="M88.4341 83.5834H88.136C86.6885 83.6565 85.2166 83.6078 83.7691 83.5834C83.5441 83.5834 83.1954 83.5084 83.171 83.8328C83.1466 84.1571 83.5197 84.0559 83.7447 84.0821C84.6672 84.1571 85.016 84.4065 85.1416 85.1546C85.1998 85.4842 85.233 85.8176 85.241 86.1521C85.316 89.9453 85.391 93.7365 85.4416 97.5053L85.3666 97.9778L85.241 97.8296C82.871 94.6609 80.4504 91.5165 78.0316 88.3984C76.7829 86.8009 75.5604 85.1546 74.3379 83.5328C74.2141 83.3584 74.0641 83.1334 73.8147 83.184C73.5654 83.2346 73.5654 83.5328 73.5147 83.7315V83.9321C73.4904 86.7015 73.466 89.4953 73.4154 92.2646C73.3647 95.3096 73.4154 98.3528 73.2147 101.422C73.166 102.296 72.9166 102.519 72.0185 102.57C71.7935 102.57 71.4691 102.519 71.4935 102.894C71.5179 103.269 71.8179 103.143 72.0185 103.143C73.331 103.119 74.6435 103.018 75.956 103.143C76.2316 103.168 76.5297 103.143 76.8297 103.143C77.0285 103.143 77.2047 103.093 77.2047 102.87C77.2047 102.647 77.0304 102.618 76.8822 102.594L76.5579 102.57C75.7835 102.519 75.4835 102.296 75.3091 101.572C75.2296 101.262 75.188 100.943 75.1854 100.623C75.1104 98.4278 75.0354 96.2321 75.011 94.0365C74.9847 92.4146 75.011 90.7684 75.011 89.1465L75.2097 89.3959C78.1535 93.5884 81.3729 97.5803 84.5847 101.597C84.9841 102.12 85.4079 102.618 85.8335 103.119C86.0079 103.318 86.231 103.543 86.531 103.443C86.831 103.344 86.8066 102.993 86.831 102.744C86.8432 102.586 86.8432 102.428 86.831 102.27C86.8797 98.2778 86.9304 94.3103 87.0054 90.3184C87.0297 88.7471 86.9304 87.1759 87.0804 85.6028C87.2041 84.3803 87.2547 84.3803 88.4772 84.1028C88.6272 84.0784 88.751 84.0034 88.751 83.829L88.4341 83.5834Z" fill="white"/><path d="M26.8119 92.1891C26.4369 91.9903 26.4631 91.8909 26.7369 91.6416C27.8094 90.6178 28.5087 89.3709 28.6344 87.8728C28.7825 85.9978 27.935 84.0309 25.4469 83.6559C24.2244 83.4816 22.9775 83.6316 21.755 83.6072H20.87C20.5719 83.6072 20.2963 83.5828 19.9963 83.5828H18.4494C18.275 83.5828 18.125 83.6559 18.125 83.8566C18.125 84.0572 18.275 84.0816 18.425 84.0816C18.6177 84.0935 18.8094 84.1186 18.9988 84.1566C19.7225 84.2559 20.0225 84.6047 20.0975 85.3284C20.1219 85.6528 20.1462 86.0016 20.1462 86.3259C20.1462 89.9691 20.1725 93.6122 20.1462 97.2553C20.1462 98.4778 20.0975 99.6928 20.0713 100.923C20.0469 101.395 20.0469 101.896 19.7469 102.295C19.4975 102.644 19.0981 102.569 18.725 102.593H18.6744C18.5244 102.644 18.425 102.719 18.4494 102.918L18.7006 103.167H19.1244C20.5456 103.143 21.9369 102.942 23.3412 103.143C23.9111 103.225 24.487 103.259 25.0625 103.242C26.5344 103.143 27.8056 102.644 28.7544 101.497C30.9256 98.8716 30.65 94.2103 26.8081 92.1891M23.3412 84.7491C24.2394 84.6497 25.0287 84.8991 25.5106 85.6716C26.5344 87.3197 26.7087 89.0653 25.835 90.8372C25.3869 91.7353 23.8644 92.1834 22.9662 91.7597C22.7412 91.6603 22.7919 91.4859 22.7919 91.3116V88.2722C22.7919 87.2991 22.8162 86.3016 22.7919 85.3284C22.7919 84.9291 22.9662 84.8053 23.3412 84.7547M26.9825 100.647C26.2325 102.245 24.4381 102.22 23.42 101.596C23.2795 101.506 23.1614 101.385 23.075 101.242C22.9885 101.1 22.9359 100.939 22.9212 100.773C22.8379 100.262 22.8047 99.7436 22.8219 99.226V93.4866C22.8219 93.0872 22.9475 93.0122 23.3206 92.9878C24.6687 92.8884 25.6156 93.5128 26.3394 94.5853C27.1138 95.7328 27.4137 96.9797 27.4869 98.2772C27.4137 99.151 27.3387 99.9234 26.9881 100.647" fill="white"/><path d="M47.9668 83.5842C46.4199 83.6329 44.8487 83.6085 43.3018 83.5842H43.2024C43.0262 83.5842 42.8518 83.6085 42.8518 83.8335C42.8518 84.0585 43.0018 84.0829 43.1762 84.0829L43.4256 84.1073C44.4249 84.2329 44.6987 84.531 44.7981 85.5042C44.8199 85.7448 44.8287 85.9864 44.8243 86.2279V93.6623C44.8243 94.5117 44.8243 95.3592 44.7981 96.1823C44.7737 97.3317 44.6987 98.5035 44.2243 99.576C43.6262 100.973 42.6024 101.847 41.0068 101.922C39.4599 101.997 38.3818 101.249 37.6637 99.9248C37.1631 99.0023 36.9887 97.9785 36.9137 96.9248C36.7149 94.1554 36.8649 91.4104 36.8143 88.641C36.8143 87.6679 36.7899 86.7192 36.8649 85.746C36.9399 84.3735 36.9643 84.3735 38.2862 84.0492H38.3368L38.5356 83.826L38.3368 83.601L37.9131 83.5767C36.1656 83.6498 34.4199 83.601 32.6724 83.5767C32.4474 83.5767 32.0743 83.4267 32.0237 83.7998C31.9731 84.1729 32.3987 84.0492 32.5974 84.0754C33.6212 84.2254 33.9212 84.5235 33.9943 85.5473C34.0162 85.8042 34.0249 86.062 34.0206 86.3198V94.9035C34.0058 96.0261 34.1038 97.1474 34.3131 98.2504C34.8381 100.819 36.1599 103.041 39.4037 103.39C41.6237 103.639 43.5699 103.165 45.0418 101.344C45.9906 100.17 46.3393 98.7735 46.5643 97.3017C46.7631 95.9048 46.7631 94.5079 46.7631 93.111C46.7893 90.516 46.6899 87.9454 46.8381 85.3504C46.8887 84.3773 47.0631 84.2254 48.0362 84.0792C48.2106 84.0529 48.4862 84.1035 48.4862 83.8298C48.4112 83.5298 48.1618 83.5542 47.9612 83.5804" fill="white"/><path d="M101.659 99.1279C101.41 99.0772 101.46 99.351 101.41 99.5029L101.335 99.9266C101.136 101.125 100.611 101.623 99.3884 101.698C98.8653 101.723 98.3647 101.723 97.8416 101.698C96.5441 101.623 95.9666 101.074 95.9459 99.7785C95.9197 97.7816 95.9459 95.7604 95.9197 93.7654C95.9197 93.441 96.0697 93.3904 96.3191 93.3904C97.0184 93.4147 97.6916 93.4654 98.3909 93.4897C100.013 93.5404 100.212 93.7147 100.362 95.3647C100.362 95.5147 100.337 95.6891 100.536 95.6891C100.735 95.6891 100.737 95.4904 100.737 95.3647C100.761 94.941 100.761 94.4929 100.785 94.0672C100.836 93.2441 100.911 92.4454 100.986 91.6297L100.86 91.281L100.587 91.4797C100.482 91.6345 100.34 91.7611 100.175 91.8484C100.009 91.9357 99.8249 91.981 99.6378 91.9804C98.4903 92.0291 97.3184 92.0291 96.1709 92.0535C95.9197 92.0535 95.8953 91.8791 95.8953 91.7047V85.5285C95.8953 85.2304 95.9947 85.1535 96.2947 85.1535C97.1928 85.1535 98.0909 85.2022 98.9891 85.2529C100.037 85.3279 100.412 85.6522 100.587 86.676C100.607 86.8326 100.615 86.9906 100.611 87.1485C100.611 87.2741 100.587 87.4485 100.761 87.4729C100.935 87.4972 100.986 87.2985 101.01 87.1747C101.16 86.0272 101.11 84.8797 101.31 83.7304C101.359 83.4566 101.209 83.406 100.96 83.5072C100.504 83.6699 100.022 83.7456 99.5384 83.7304H95.4959C94.5491 83.7566 93.2009 83.706 91.8528 83.6554C91.6943 83.6602 91.5363 83.6771 91.3803 83.706L91.1797 83.931L91.4047 84.1297C91.6034 84.156 91.8284 84.1804 92.0291 84.2047C92.7791 84.3304 93.1016 84.6285 93.1541 85.3785C93.1803 85.7272 93.2047 86.076 93.2047 86.4266C93.2047 89.8935 93.2291 93.3641 93.2291 96.8291C93.2291 98.2279 93.1803 99.6247 93.1541 101.022C93.1297 102.244 92.9797 102.394 91.8322 102.617L91.6822 102.643L91.5003 102.938L91.7009 103.163C91.8574 103.185 92.0155 103.193 92.1734 103.189C93.8703 103.088 95.5484 103.013 97.2134 103.163C98.3872 103.262 99.5591 103.238 100.733 103.262C101.205 103.262 101.43 103.063 101.505 102.613C101.684 101.617 101.776 100.607 101.779 99.5947C101.83 99.396 101.854 99.1466 101.655 99.1222" fill="white"/><path d="M122.94 91.2679C122.218 90.7448 121.468 90.2198 120.877 89.5467C119.705 88.2248 119.78 86.1042 121.076 85.1554C121.493 84.8318 121.991 84.6301 122.515 84.5729C123.04 84.5156 123.57 84.605 124.046 84.831C125.143 85.3054 125.546 86.3029 125.668 87.426C125.692 87.6004 125.593 87.8742 125.867 87.8742C126.14 87.8742 126.092 87.6004 126.116 87.426C126.142 86.8523 126.116 86.2785 126.116 85.7048H126.167C126.167 85.2304 126.142 84.7804 126.167 84.306C126.217 83.8823 126.041 83.7079 125.644 83.6085C124.65 83.3514 123.624 83.2421 122.599 83.2842C120.454 83.3835 118.582 84.8554 118.084 86.901C117.51 89.1717 117.982 91.2135 119.584 92.9648C120.433 93.8873 121.479 94.611 122.452 95.3854C123.626 96.3229 124.299 97.4798 124.224 99.0267C124.149 100.574 123.176 101.871 121.854 102.045C121.094 102.171 120.313 102.01 119.664 101.595C119.015 101.18 118.542 100.539 118.337 99.7954C118.171 99.2783 118.079 98.7406 118.061 98.1979C118.061 98.0479 118.087 97.8229 117.887 97.7986C117.637 97.7742 117.662 98.0236 117.613 98.1736L117.589 98.3723C117.562 99.5198 117.538 100.643 117.463 101.79C117.412 102.39 117.688 102.715 118.213 102.915C119.486 103.39 120.808 103.465 122.13 103.339C122.683 103.29 123.222 103.132 123.715 102.875C124.207 102.618 124.644 102.266 125 101.839C126.746 99.7429 126.92 97.3973 126.073 94.9279C125.499 93.3304 124.277 92.2335 122.953 91.2604" fill="white"/><path d="M110.49 91.2679C109.768 90.7448 109.018 90.2198 108.428 89.5467C107.256 88.2248 107.355 86.1042 108.627 85.1554C109.043 84.8318 109.541 84.6301 110.066 84.5729C110.59 84.5156 111.12 84.605 111.597 84.831C112.693 85.3054 113.097 86.3029 113.218 87.426C113.243 87.6004 113.143 87.8742 113.417 87.8742C113.691 87.8742 113.642 87.576 113.667 87.426C113.693 86.8523 113.667 86.2785 113.667 85.7048H113.717C113.717 85.2304 113.693 84.7804 113.717 84.306C113.768 83.8823 113.593 83.7079 113.194 83.6085C112.201 83.3514 111.175 83.2421 110.149 83.2842C108.004 83.3835 106.133 84.831 105.634 86.901C105.06 89.1717 105.559 91.2135 107.134 92.9648C107.983 93.8873 109.03 94.5867 110.003 95.3854C111.177 96.3229 111.85 97.4798 111.775 99.0267C111.7 100.574 110.727 101.871 109.405 102.045C108.644 102.171 107.864 102.01 107.214 101.595C106.565 101.18 106.092 100.539 105.887 99.7954C105.73 99.2938 105.634 98.7751 105.6 98.2504C105.6 98.076 105.651 97.851 105.426 97.8267C105.152 97.8004 105.201 98.1004 105.152 98.2504V98.4004C105.128 99.5479 105.102 100.671 105.053 101.819C105.002 102.417 105.276 102.741 105.803 102.944C107.074 103.418 108.398 103.493 109.72 103.369C110.809 103.269 111.818 102.751 112.532 101.922C114.302 99.8498 114.478 97.506 113.657 95.0348C113.083 93.3642 111.861 92.2654 110.488 91.2679" fill="white"/><path d="M56.4249 91.2683C55.7011 90.7452 54.953 90.2202 54.3624 89.5471C53.1886 88.2252 53.288 86.1046 54.5611 85.1558C54.9776 84.8322 55.4758 84.6305 56.0002 84.5733C56.5246 84.516 57.0545 84.6054 57.5311 84.8314C58.628 85.3058 59.0311 86.3033 59.153 87.4264C59.1774 87.6008 59.078 87.8746 59.3517 87.8746C59.6255 87.8746 59.5767 87.5764 59.6011 87.4264C59.6255 86.8527 59.6011 86.2789 59.6011 85.7052H59.6517C59.6517 85.2308 59.6255 84.7321 59.6517 84.2577C59.6661 84.1886 59.6664 84.1174 59.6526 84.0482C59.6388 83.9791 59.6112 83.9134 59.5715 83.8551C59.5318 83.7968 59.4807 83.7472 59.4214 83.7091C59.362 83.6709 59.2956 83.6452 59.2261 83.6333C58.2053 83.3428 57.1432 83.225 56.0836 83.2846C55.066 83.3217 54.0861 83.6795 53.284 84.3068C52.4819 84.9342 51.8985 85.799 51.6174 86.7777C50.9686 89.0971 51.4674 91.1689 53.0892 92.9652C53.9367 93.9121 54.9849 94.5871 55.958 95.3858C57.1317 96.3233 57.8049 97.4802 57.7055 99.0271C57.6061 100.574 56.6574 101.871 55.3355 102.046C54.5746 102.171 53.7941 102.011 53.1444 101.596C52.4947 101.18 52.0215 100.539 51.8161 99.7958C51.6631 99.293 51.5712 98.7737 51.5424 98.2489C51.5424 98.0746 51.593 97.8496 51.3436 97.8252C51.0942 97.8008 51.143 98.0989 51.068 98.2489V98.3989C51.0436 99.5239 50.993 100.649 50.9686 101.774C50.9442 102.548 51.0192 102.672 51.7674 102.946C53.0142 103.446 54.3117 103.495 55.6336 103.345C56.7235 103.248 57.7324 102.729 58.4461 101.9C60.218 99.8277 60.3924 97.4821 59.5711 94.9883C59.0217 93.3664 57.7992 92.2433 56.4267 91.2702" fill="white"/><path d="M68.8998 102.562H68.476C67.6285 102.512 67.3041 102.187 67.2535 101.34C67.2048 100.742 67.1785 100.117 67.1785 99.5174V86.9006C67.1785 86.3774 67.2048 85.8787 67.2535 85.3537C67.3285 84.3806 67.4785 84.2287 68.4516 84.0824C68.626 84.0562 68.8998 84.1068 68.8754 83.8331C68.851 83.5593 68.6016 83.5837 68.401 83.5837H63.1623C62.9616 83.5837 62.6879 83.5574 62.6635 83.8331C62.6391 84.1087 62.9373 84.0824 63.1379 84.1068C64.0604 84.2324 64.3098 84.5062 64.3848 85.4287C64.4091 85.7287 64.4354 86.0287 64.4354 86.3531C64.4354 88.7718 64.4598 91.1924 64.4598 93.6131C64.4598 96.0337 64.4841 98.5031 64.3848 100.926C64.3604 101.398 64.3604 101.863 64.0848 102.272C63.8091 102.681 63.4116 102.572 63.0366 102.596C62.8623 102.621 62.7123 102.696 62.7385 102.896C62.7648 103.097 62.9129 103.146 63.0873 103.146C63.361 103.146 63.6366 103.17 63.9104 103.146C65.206 103.046 66.5073 103.046 67.8029 103.146C68.1779 103.17 68.5754 103.146 68.9504 103.146C69.1754 103.146 69.4004 103.17 69.4004 102.872C69.4004 102.574 69.1248 102.572 68.8998 102.572" fill="white"/><path d="M154.178 89.2702C153.28 86.2027 151.21 84.3314 148.016 83.7821C146.044 83.4577 144.079 83.5833 142.178 83.5833C140.805 83.7071 139.508 83.5327 138.21 83.5571L137.786 83.5833C137.661 83.6077 137.537 83.6564 137.537 83.8064L137.786 84.0558L138.086 84.0821C139.258 84.1814 139.607 84.5564 139.633 85.7039V98.2777C139.633 99.2508 139.607 100.2 139.532 101.173C139.457 102.146 139.309 102.594 138.261 102.57C138.086 102.57 137.886 102.618 137.886 102.843C137.886 103.119 138.086 103.143 138.285 103.119C138.709 103.119 139.159 103.093 139.583 103.068C140.364 103.018 141.147 103.018 141.928 103.068C143.599 103.194 145.247 103.443 146.918 103.218C149.438 102.87 151.583 101.821 152.955 99.5752C154.952 96.3577 155.226 92.8646 154.178 89.2627M150.99 98.5702C150.167 100.715 148.446 101.788 146.175 101.945C145.406 102.026 144.629 101.966 143.88 101.771C142.907 101.471 142.583 101.021 142.508 99.9989C142.358 97.6289 142.433 95.2589 142.433 93.9614V85.8746C142.433 85.1246 142.556 84.9764 143.306 84.9014C147.073 84.5771 150.191 86.4239 151.215 90.0164C152.038 92.9096 152.063 95.7783 150.99 98.5739" fill="#FCFDFF"/><path d="M171.519 102.563C170.845 102.587 170.371 102.263 170.019 101.689C169.627 101.01 169.309 100.291 169.07 99.5438C167.3 94.3294 165.552 89.1394 163.78 83.925C163.681 83.625 163.632 83.175 163.207 83.2013C162.832 83.2257 162.783 83.625 162.684 83.925C161.184 88.365 159.665 92.7825 158.167 97.2225C157.694 98.595 157.244 99.9432 156.745 101.289C156.445 102.088 155.922 102.602 154.974 102.563C154.775 102.538 154.574 102.587 154.574 102.863C154.574 103.138 154.824 103.136 155.024 103.136C156.524 103.086 158.043 103.011 159.539 103.136C159.74 103.161 159.989 103.187 159.989 102.863C159.989 102.538 159.74 102.563 159.539 102.563C158.566 102.638 158.442 102.113 158.602 101.364C158.926 99.8175 159.524 98.3457 159.948 96.8232C160.023 96.6 160.149 96.5738 160.347 96.5738H164.864C165.063 96.5738 165.213 96.6 165.262 96.7988C165.787 98.5463 166.336 100.292 166.859 102.013C166.895 102.101 166.9 102.198 166.872 102.289C166.845 102.38 166.787 102.458 166.709 102.512C166.585 102.587 166.385 102.638 166.435 102.836C166.484 103.086 166.709 103.011 166.884 103.011C168.406 103.136 169.929 103.086 171.449 103.086C171.65 103.086 171.899 103.112 171.924 102.812C171.999 102.538 171.749 102.563 171.524 102.563M164.039 95.1282H160.87C160.722 95.1282 160.495 95.2013 160.597 94.8769C161.296 92.7075 161.969 90.5644 162.693 88.2413C163.342 90.3863 163.966 92.4075 164.589 94.4288C164.789 95.1282 164.789 95.1282 164.039 95.1282Z" fill="#FCFDFF"/><path d="M184.843 83.5839C183.446 83.6327 182.049 83.6571 180.652 83.5839H180.502L180.253 83.7583L180.427 84.0564C181.1 84.4314 181.2 84.5571 180.95 85.2789C180.103 87.9246 178.73 90.3189 177.658 93.0133C176.435 90.3452 175.262 87.7746 174.114 85.2302L173.99 84.8552C173.865 84.4802 173.94 84.2064 174.365 84.0827C174.515 84.0321 174.69 83.9814 174.665 83.7827C174.641 83.5839 174.467 83.5577 174.29 83.5839C172.644 83.6327 171.022 83.6327 169.376 83.5839C169.202 83.5839 169.001 83.5839 168.977 83.8333C168.977 84.0321 169.151 84.0564 169.301 84.1071C169.588 84.1583 169.861 84.2663 170.106 84.4247C170.35 84.5831 170.56 84.7887 170.724 85.0296C171.045 85.449 171.321 85.9008 171.547 86.3777C172.695 88.6727 173.867 90.9677 175.014 93.2889C175.326 93.8725 175.529 94.5078 175.614 95.1639C175.768 97.274 175.759 99.3927 175.588 101.501C175.539 102.325 175.239 102.55 174.44 102.598L174.167 102.623L173.942 102.898L174.189 103.144H174.564C176.012 103.12 177.457 102.994 178.905 103.12C179.403 103.168 179.928 103.144 180.452 103.144C180.531 103.155 180.611 103.136 180.676 103.089C180.741 103.043 180.786 102.973 180.8 102.895C180.827 102.694 180.652 102.619 180.476 102.595C180.285 102.574 180.094 102.566 179.902 102.57C178.98 102.52 178.68 102.246 178.58 101.323C178.43 99.5758 178.532 97.8302 178.505 96.0827C178.505 95.6833 178.532 95.2839 178.556 94.8846C178.655 93.8871 179.13 93.0096 179.529 92.1414C180.626 89.8202 181.674 87.5008 183.022 85.3052C183.21 84.9787 183.469 84.6991 183.78 84.4873C184.091 84.2756 184.446 84.1372 184.818 84.0827C185.017 84.0564 185.193 84.0077 185.167 83.7827C185.218 83.5577 185.017 83.5577 184.843 83.5839Z" fill="#FCFDFF"/><path d="M23.2919 93.0132C22.9169 93.0395 22.7932 93.1145 22.7932 93.5139C22.8175 95.4339 22.7932 97.3295 22.7932 99.2514C22.7767 99.769 22.8099 100.287 22.8925 100.798C22.9675 101.147 23.0913 101.447 23.3913 101.621C24.415 102.246 26.2038 102.27 26.9538 100.674C27.3025 99.9507 27.4038 99.1745 27.4282 98.3289C27.4003 97.0143 27.0026 95.7341 26.2807 94.6351C25.5813 93.5382 24.6344 92.9139 23.2807 93.0132" fill="#EA2127"/><path d="M22.817 88.2989V91.342C22.817 91.5164 22.7683 91.6908 22.9914 91.7902C23.8895 92.2158 25.412 91.7658 25.862 90.8677C26.7095 89.0958 26.5595 87.3502 25.5376 85.7039C25.0633 84.9295 24.2645 84.6802 23.3664 84.7795C22.967 84.8302 22.817 84.9539 22.817 85.3795C22.8414 86.3264 22.817 87.3258 22.817 88.2989Z" fill="#EA2127"/><path d="M143.3 84.9375C142.55 85.0125 142.426 85.1625 142.426 85.9106V93.9938C142.45 95.2669 142.351 97.6613 142.501 100.033C142.55 101.055 142.9 101.505 143.874 101.803C144.624 102.053 145.394 102.028 146.169 101.979C148.439 101.829 150.16 100.757 150.984 98.6044C152.056 95.8106 152.032 92.9156 151.209 90.0713C150.187 86.4525 147.067 84.6056 143.3 84.9375Z" fill="#292525"/><path d="M162.687 88.249C161.963 90.544 161.29 92.7153 160.591 94.8846C160.492 95.2353 160.717 95.1359 160.865 95.1359H164.033C164.783 95.1359 164.783 95.1359 164.558 94.4365C163.96 92.4153 163.336 90.394 162.683 88.249" fill="#292525"/></svg>