<svg width="200" height="95" viewBox="0 0 200 95" fill="none" xmlns="http://www.w3.org/2000/svg"><rect width="200" height="95" fill="#FCFCFD"/><g clip-path="url(#clip0_6960_3722)"><path d="M157.785 57.6736V58.4611C156.701 58.403 155.649 58.3036 154.597 58.3018C153.073 58.3018 151.547 58.4086 150.022 58.3899C149.473 58.3899 148.918 58.0149 148.38 58.0392C146.853 58.1236 145.335 58.3299 143.812 58.4892C143.659 58.5061 143.505 58.5286 143.291 58.5567V57.1974C142.53 57.623 141.86 58.1349 141.105 58.3936C138.319 59.3311 135.045 58.0449 134.021 54.9174C133.565 53.5299 133.295 52.1049 133.393 50.6649C133.537 48.5256 134.12 46.5118 135.589 44.8806C136.714 43.6356 138.178 43.0243 139.841 42.9475C140.921 42.8968 142.007 42.9475 143.195 42.9475C143.15 41.9425 143.13 40.8194 143.036 39.7C143.014 39.4077 142.882 39.1345 142.667 38.935C142.453 38.7355 142.17 38.6243 141.877 38.6238C141.15 38.605 141.127 38.2844 141.257 37.6431C141.726 37.6713 142.197 37.6713 142.667 37.6431C144.195 37.4606 145.722 37.2544 147.245 37.0244C147.772 36.9438 147.945 37.0581 147.86 37.5756C147.807 37.8439 147.774 38.116 147.763 38.3894V54.9211C147.763 56.3724 147.975 56.6405 149.33 57.0849C149.505 57.143 149.621 57.3793 149.775 57.548C151.087 57.2105 151.359 56.1305 151.378 54.9886C151.423 52.1293 151.451 49.2681 151.367 46.4106C151.325 45.0568 151.196 44.7456 149.638 44.4062V43.5156C150.251 43.5156 150.83 43.5606 151.402 43.5156C152.689 43.4251 153.97 43.2699 155.24 43.0506C155.934 42.9137 155.99 43.1519 155.99 43.6937C155.99 47.5537 155.996 51.413 156.007 55.2718C156.007 56.8036 156.32 57.2349 157.785 57.6736ZM143.21 50.5993V45.8612C143.21 44.9968 143.012 44.7362 142.179 44.4643C140.659 43.975 139.335 44.5993 138.879 46.2381C138.548 47.4903 138.359 48.776 138.317 50.0705C138.247 51.6662 138.317 53.2787 138.949 54.7918C139.605 56.3499 141.011 56.9518 142.597 56.3949C143.023 56.2449 143.227 56.033 143.218 55.5436C143.194 53.8974 143.218 52.2493 143.218 50.5993H143.21Z" fill="#03ADED"/><path d="M51.1522 57.9165V58.6383H43.2622L43.2266 57.9258C44.5391 57.5508 45.0528 56.7352 45.0472 55.3609C45.0303 50.814 45.1222 46.2672 45.1559 41.7203C45.1615 41.1482 45.1176 40.5767 45.0247 40.0122C44.8972 39.2528 44.3009 38.876 43.2697 38.8441V38.0791L49.7366 37.3291V44.7334C50.734 43.7678 51.8722 43.2053 53.2672 43.2053C54.6322 43.2053 55.9878 43.1397 57.1653 44.0547C58.2472 44.8947 58.6484 46.0515 58.6878 47.3265C58.7647 49.7884 58.7497 52.254 58.7778 54.7159C58.7778 55.1096 58.7947 55.5052 58.8228 55.899C58.9128 57.159 59.2634 57.5865 60.4972 57.9221V58.5727H52.7347V57.8921C53.1449 57.7802 53.505 57.5322 53.7557 57.1888C54.0065 56.8454 54.133 56.4269 54.1147 56.0021C54.1372 53.2852 54.2234 50.5646 54.0697 47.8553C53.9478 45.7178 52.1028 44.784 50.1322 45.6878C50.0208 45.7494 49.9251 45.8356 49.8523 45.94C49.7795 46.0443 49.7315 46.1639 49.7122 46.2897C49.7122 49.6646 49.7309 53.0352 49.7684 56.4015C49.7891 57.1946 50.1678 57.5715 51.1541 57.9202L51.1522 57.9165Z" fill="#242021"/><path d="M89.6041 37.8434V41.3608H88.7641C88.5766 40.0483 87.7553 39.244 86.4634 39.0977C84.4516 38.8708 82.406 38.8015 80.7916 40.3502C79.7716 41.329 79.1997 42.6002 78.8941 43.9727C78.1778 47.2052 78.1741 50.4245 79.2297 53.582C80.1297 56.2764 82.1641 57.4857 84.9616 57.1445V52.5808C84.9616 52.442 84.9484 52.3014 84.9616 52.1626C84.9934 51.2251 84.7309 50.8126 83.9041 50.4751C83.276 50.2145 83.276 50.2145 83.3116 49.562H91.3609L91.3947 50.2408L91.0703 50.3439C89.9772 50.6758 89.5834 51.2008 89.5703 52.3726C89.5572 54.0001 89.5403 55.6295 89.5572 57.2476C89.5572 57.7088 89.4672 57.9076 88.9553 58.0407C86.8722 58.5882 84.7591 58.6163 82.6347 58.5338C80.561 58.4532 78.6316 57.902 76.901 56.7263C75.041 55.4607 74.0641 53.6439 73.7135 51.4764C73.5428 50.4376 73.3666 49.3764 73.406 48.332C73.5035 45.7333 73.9385 43.2133 75.6447 41.089C77.0228 39.3733 78.8453 38.4246 80.9303 37.9165C83.9734 37.1796 87.0053 37.4402 89.6116 37.8396L89.6041 37.8434ZM178.173 43.0464L178.235 44.3908C178.798 44.0327 179.238 43.6258 179.765 43.4271C181.665 42.7071 183.596 42.5683 185.439 43.5752C186.733 44.2839 187.228 45.5383 187.265 46.9502C187.342 49.7626 187.35 52.5751 187.41 55.3745C187.441 56.8614 187.798 57.3001 189.189 57.6957V58.3651H181.348C181.209 57.9057 181.267 57.6526 181.815 57.3995C182.19 57.2232 182.54 56.6682 182.636 56.2239C182.773 55.4462 182.825 54.656 182.793 53.867C182.782 51.752 182.72 49.637 182.703 47.522C182.686 45.3339 181.016 44.9233 179.266 45.2552C178.55 45.3921 178.275 45.7089 178.291 46.502C178.357 49.5714 178.327 52.6426 178.336 55.712C178.336 56.8257 178.629 57.2363 179.696 57.6395V58.3632H171.821L171.774 57.6545C173.274 57.3582 173.715 56.2632 173.73 54.9414C173.76 52.1045 173.793 49.2658 173.715 46.4289C173.677 45.0846 173.544 44.6758 171.954 44.3964V43.6464L178.173 43.0464Z" fill="#03ADED"/><path d="M90.166 44.5538V43.7776L96.541 43.0276V53.235C96.542 53.7397 96.5986 54.2427 96.7098 54.735C97.0004 55.9856 98.1816 56.5987 99.6685 56.2931C99.9848 56.2475 100.288 56.135 100.557 55.9631C100.675 55.8782 100.775 55.7709 100.85 55.6474C100.926 55.5238 100.977 55.3864 101 55.2431C101.024 52.4981 101.011 49.7532 101 47.01C101 46.5319 101.035 45.9957 100.837 45.5926C100.623 45.1504 100.257 44.8002 99.8054 44.6063C99.2279 44.4188 99.0854 44.1488 99.2054 43.6894L105.61 43.0463V45.6544C105.61 48.795 105.597 51.9338 105.61 55.0744C105.61 56.5181 105.923 56.8481 107.311 57.1087C107.485 57.9637 107.453 58.0312 106.643 58.0068C104.936 57.9272 103.226 58.0978 101.568 58.5131C101.193 58.6125 100.981 58.5131 101.005 58.0781C101.018 57.7406 101.005 57.4031 101.005 57.18C100.068 57.6244 99.1885 58.1925 98.2322 58.4512C96.511 58.9181 94.7935 58.7587 93.3291 57.6262C92.9645 57.3449 92.6662 56.9867 92.4556 56.5771C92.2449 56.1675 92.1271 55.7165 92.1104 55.2562C92.011 52.5938 92.0054 49.9275 91.9491 47.265C91.9674 46.7607 91.9176 46.2561 91.801 45.7651C91.5723 45.0263 90.9948 44.6194 90.1679 44.5538H90.166ZM114.959 57.2175C114.408 57.5175 113.624 58.1793 112.732 58.3875C109.895 59.055 107.442 58.1531 107.318 54.675C107.313 54.0416 107.396 53.4106 107.564 52.8C107.911 51.4238 108.858 50.6025 110.223 50.3625C111.423 50.1431 112.66 50.07 113.86 49.9556C114.247 49.9181 114.638 49.9556 115.152 49.9556C115.088 48.8307 115.18 47.7488 114.929 46.7494C114.612 45.4894 113.557 44.7844 111.798 45.0619C110.808 45.2232 110.152 45.8476 109.623 46.6519C109.585 46.6561 109.547 46.649 109.514 46.6313C108.577 45.78 108.61 45.5063 109.514 44.5688C110.639 43.3857 112.028 42.9488 113.592 42.9619C114.56 42.9619 115.552 42.9619 116.491 43.1494C118.289 43.5244 119.504 45.0657 119.549 47.0175C119.607 49.5488 119.56 52.08 119.564 54.6131C119.564 56.0437 119.887 56.2856 121.298 55.9762C121.437 55.9462 121.711 56.0456 121.747 56.1469C121.816 56.3475 121.853 56.655 121.747 56.805C120.997 57.8494 119.986 58.5056 118.681 58.5637C117.871 58.6012 117.023 58.7512 116.29 58.1793C115.837 57.8231 115.353 57.5118 114.95 57.2212L114.959 57.2175ZM115.147 51.1463C114.659 51.1931 114.292 51.2175 113.926 51.2625C113.002 51.3769 112.285 51.8025 112.017 52.7344C111.719 53.7619 111.642 54.8081 112.343 55.7212C112.885 56.4337 114.258 56.5294 114.94 55.9425C115.056 55.8376 115.127 55.6928 115.139 55.5375C115.152 54.1069 115.139 52.6763 115.139 51.1444L115.147 51.1463ZM165.569 49.9444C165.49 48.8419 165.53 47.8125 165.32 46.8357C164.992 45.3094 163.649 44.7151 162.183 45.1182C161.347 45.3488 160.613 45.9601 159.745 46.4457C158.903 45.8832 158.933 45.5926 159.745 44.7057C160.992 43.3276 162.547 42.8794 164.315 42.9469C165.19 42.9807 166.09 42.9582 166.93 43.1663C168.835 43.6388 169.878 45.0301 169.93 47.2125C170.001 49.7681 169.945 52.3275 169.949 54.885C169.949 55.9706 170.538 56.385 171.56 56.0512C171.726 55.9969 172.058 56.04 172.122 56.1431C172.173 56.2437 172.2 56.3545 172.202 56.4671C172.204 56.5798 172.18 56.6914 172.133 56.7937C171.32 57.8793 170.245 58.5356 168.858 58.5712C167.872 58.5956 166.848 58.7006 166.152 57.7537C165.952 57.4819 165.777 57.1912 165.59 56.8969C165.145 57.24 164.693 57.57 164.262 57.9243C163.115 58.8618 160.04 58.8825 158.92 57.7256C158.402 57.1601 158.029 56.4766 157.835 55.7344C157.422 54.1969 157.574 52.6538 158.671 51.4219C159.173 50.901 159.817 50.5391 160.523 50.3813C161.708 50.1169 162.942 50.0606 164.159 49.9425C164.566 49.9013 164.984 49.9425 165.569 49.9425V49.9444ZM165.503 51.1481C164.96 51.21 164.5 51.2381 164.05 51.3169C163.197 51.465 162.55 51.9525 162.391 52.8C162.237 53.5227 162.226 54.2685 162.357 54.9956C162.625 56.2519 164.232 56.7544 165.263 55.9837C165.33 55.9276 165.385 55.8587 165.424 55.7811C165.464 55.7035 165.488 55.6188 165.494 55.5319C165.509 54.105 165.494 52.6875 165.494 51.1388L165.503 51.1481Z" fill="#03ADED"/><path d="M43.0962 41.5066H42.1475C41.9862 39.9016 41.2925 39.2941 39.6612 39.2997H37.2069V55.1227C37.2069 56.8458 37.7994 57.4777 39.5544 57.6221C39.5544 57.7496 39.5769 57.8827 39.5769 58.0177C39.5739 58.13 39.5645 58.2421 39.5487 58.3533H30.1175L30.0912 57.7908C30.7269 57.5133 31.3494 57.3671 31.7956 57.0052C32.1425 56.724 32.3787 56.1934 32.4706 55.734C32.5785 55.0572 32.62 54.3714 32.5944 53.6865V39.3128C31.4562 39.3128 30.32 39.2153 29.2081 39.341C28.1619 39.4572 27.7512 40.1022 27.4981 41.5141H26.7031V37.7979H42.89L43.0962 41.5066Z" fill="#242021"/><path d="M72.4443 49.9234H64.1324C64.228 51.9521 64.1868 53.9921 65.7843 55.5014C66.3222 55.9921 66.9901 56.3176 67.708 56.4389C68.9471 56.6446 70.2189 56.5038 71.383 56.0321C71.4899 56.0132 71.5997 56.0205 71.7031 56.0531C71.8066 56.0857 71.9007 56.1428 71.9774 56.2196C72.0561 56.3058 71.9774 56.6546 71.8611 56.7821C70.8926 57.8247 69.5582 58.4523 68.1374 58.5333C66.5924 58.6158 65.0399 58.7414 63.5043 58.1902C61.8299 57.5883 60.7818 56.4446 60.1049 54.8714C59.3737 53.1671 59.3962 51.3446 59.5837 49.5877C59.8068 47.484 60.5737 45.4778 62.3568 44.1671C63.2134 43.5705 64.1932 43.1739 65.2236 43.0065C66.2249 42.8322 67.3086 42.9259 68.3249 43.0909C70.5261 43.4509 71.8668 45.3259 72.2324 47.3715C72.3749 48.1815 72.373 49.0065 72.4443 49.9234ZM64.1043 48.3709H67.9218C67.828 47.3902 67.8055 46.4396 67.633 45.5171C67.4605 44.5946 66.883 44.1746 66.0318 44.1896C65.1805 44.2046 64.6255 44.6096 64.4418 45.549C64.2543 46.4509 64.2186 47.3771 64.108 48.3615L64.1043 48.3709Z" fill="#252122"/><path d="M130.296 57.6312V58.3531H121.412L121.373 57.6518C122.123 57.4643 122.791 57.1587 123.061 56.4331C123.245 55.918 123.338 55.3751 123.338 54.8281C123.364 52.0606 123.392 49.2913 123.338 46.5256C123.306 45.0407 122.997 44.5888 121.574 44.3938V43.6438L127.774 43.04V44.7519C128.138 44.4407 128.408 44.2775 128.59 44.045C129.661 42.6744 132.443 42.6482 133.756 43.5032C134.091 43.7207 134.172 43.9757 134.018 44.3169C133.534 45.3838 133.052 46.4506 132.542 47.5044C132.494 47.5851 132.428 47.6534 132.349 47.7039C132.27 47.7544 132.18 47.7856 132.087 47.795C131.95 47.795 131.781 47.5963 131.693 47.4481C131.318 46.8069 131.082 46.0082 130.221 45.8375C129.579 45.7172 128.928 45.6482 128.275 45.6313C128.17 45.6313 127.956 45.95 127.954 46.1225C127.936 49.2856 127.911 52.4487 127.954 55.6118C127.973 56.9599 128.618 57.4662 130.296 57.6312Z" fill="#03ADED"/><path d="M24.0664 58.7888H10.0039V37.3652H24.0664V58.7888ZM10.5214 37.8452V58.2713H23.5264V37.8452H10.5214Z" fill="#0CB0EE"/><path d="M151.114 40.0611C151.094 39.0373 151.416 38.2892 152.642 38.203C153.457 38.1509 154.275 38.1943 155.08 38.3324C155.864 38.4617 156.205 39.0973 156.272 39.8323C156.359 40.6611 156 41.3323 155.303 41.6623C154.842 41.8852 154.341 42.0138 153.829 42.0405C153.317 42.0672 152.806 41.9916 152.324 41.818C151.431 41.5161 151.118 41.0192 151.114 40.0611Z" fill="#03ADED"/><path d="M18.7973 46.1829C20.6948 45.3897 21.8873 42.611 21.1542 40.6967C20.9104 40.061 20.5467 39.911 20.091 40.2729C20.1285 40.3077 20.1701 40.338 20.2148 40.3629C20.8167 40.6048 20.9779 40.8729 20.7773 41.3116C20.6085 41.6866 20.1229 41.7823 19.6523 41.5441C19.4168 41.4266 19.2279 41.2332 19.116 40.995C19.004 40.7569 18.9757 40.4879 19.0354 40.2317C19.1535 39.5435 19.5679 39.1067 20.1829 39.0448C21.1054 38.9417 21.8704 39.431 22.1348 40.3985C22.5979 42.0691 22.4498 44.8216 20.4585 46.3685C19.8623 46.8316 19.146 47.1297 18.5104 47.4804C18.4654 47.4579 18.5479 47.5366 18.6267 47.531C19.2229 47.4954 19.3223 47.8741 19.2979 48.3354C19.2679 48.9222 19.0935 49.0572 18.4804 49.0685C17.6442 49.0685 17.5017 49.166 17.616 49.991C17.7867 51.221 18.066 52.4285 18.2798 53.6603C18.4165 54.3142 18.5048 54.9772 18.5442 55.6441C18.5667 56.5347 17.8823 57.114 16.9448 57.1047C16.0073 57.0953 15.3323 56.5647 15.4148 55.6628C15.5254 54.4478 15.8142 53.2497 16.0035 52.0403C16.1292 51.2435 16.2417 50.4428 16.3185 49.6403C16.356 49.2335 16.1479 49.0516 15.6923 49.0554C14.8823 49.0554 14.7548 48.8978 14.736 48.2322C14.736 47.771 14.8823 47.4991 15.3942 47.5404C15.5164 47.5331 15.6373 47.5111 15.7542 47.4747C15.7054 47.4054 15.6885 47.3622 15.6679 47.3604C12.9061 46.9554 11.8204 44.5704 11.7173 42.3898C11.6779 41.561 11.6761 40.7248 12.1298 39.971C12.8067 38.846 14.2392 38.7373 14.9048 39.7592C15.4035 40.526 14.9573 41.5835 14.1023 41.5891C13.9687 41.5851 13.8376 41.5526 13.7176 41.4938C13.5976 41.4349 13.4916 41.3511 13.4067 41.2479C13.2192 40.9423 13.3748 40.6217 13.701 40.4285L13.8885 40.3179C13.5885 40.0629 13.326 40.0648 13.1385 40.4229C12.9501 40.7663 12.8232 41.1401 12.7636 41.5273C12.4486 43.4398 13.4179 45.4347 15.0135 46.1754C15.2873 46.3029 15.576 46.3835 15.8723 46.4829L15.9923 46.3516C15.8948 46.2672 15.8048 46.1641 15.6979 46.0966C15.5367 45.9766 15.261 45.8866 15.2292 45.7366C15.1485 45.3766 15.441 45.3616 15.7148 45.3616C15.7973 45.3616 15.8798 45.2866 16.0898 45.1741C15.9376 45.1474 15.7887 45.1046 15.6454 45.0466C15.4942 44.9449 15.3484 44.8354 15.2085 44.7185C15.3417 44.6079 15.4673 44.4916 15.6098 44.3923C15.6998 44.3285 15.8104 44.2948 15.8779 44.1298C15.7944 44.1215 15.7128 44.1 15.636 44.066C15.4804 43.9648 15.3398 43.8448 15.1935 43.7304C15.3285 43.6123 15.4617 43.4885 15.6023 43.3704C15.6979 43.2954 15.8048 43.2335 15.906 43.166C15.8094 43.1098 15.7167 43.0472 15.6285 42.9785C15.4842 42.8604 15.351 42.7273 15.2123 42.6035C15.3435 42.4685 15.4579 42.2435 15.6117 42.2154C15.9417 42.1479 16.0073 41.9829 15.9867 41.6885C15.9698 41.2441 15.9998 40.8373 15.6267 40.4492C15.4185 40.2317 15.3698 39.7517 15.4242 39.4198C15.4973 38.9735 15.951 39.0767 16.2829 39.0729C16.8079 39.0729 17.3348 39.1235 17.856 39.0729C18.8292 38.9904 18.9379 39.7817 18.5273 40.3554C18.3764 40.5432 18.2664 40.7605 18.2044 40.9933C18.1424 41.2261 18.1298 41.4693 18.1673 41.7073C18.1954 41.8948 18.3548 42.0354 18.4842 42.1854C18.6135 42.3354 18.7429 42.4591 18.876 42.5941C18.7298 42.7198 18.5854 42.8491 18.4373 42.9691C18.3771 43.0155 18.3145 43.0586 18.2498 43.0985L18.8648 43.6816L18.1654 44.2216C18.2483 44.2702 18.3285 44.3234 18.4054 44.381C18.5404 44.4879 18.666 44.6041 18.7973 44.7166C18.6679 44.8291 18.5423 44.9472 18.4054 45.0485C18.2742 45.1214 18.1375 45.1841 17.9967 45.236C18.486 45.4235 19.1217 45.3616 18.6979 46.0441L18.1167 46.2316L18.1898 46.4191L18.7973 46.1829ZM17.616 41.6829C17.3442 41.4691 17.1867 41.2498 17.0123 41.2366C16.881 41.2254 16.6054 41.486 16.6148 41.5966C16.6311 41.6995 16.6724 41.7967 16.7352 41.8798C16.798 41.9629 16.8803 42.0292 16.9748 42.0729C17.1267 42.1179 17.3217 41.8854 17.6142 41.6979L17.616 41.6829ZM17.616 46.496C17.3442 46.2822 17.1867 46.0647 17.0179 46.0516C16.8848 46.0516 16.6129 46.2972 16.6204 46.4116C16.6364 46.5134 16.6777 46.6096 16.7406 46.6912C16.8035 46.7728 16.886 46.8372 16.9804 46.8785C17.1323 46.9179 17.3235 46.691 17.616 46.5035V46.496ZM16.9785 42.9335L16.5004 43.1998C16.6638 43.2909 16.8412 43.3543 17.0254 43.3873C17.1773 43.3873 17.3292 43.2598 17.4792 43.1866L16.9785 42.9335ZM16.4385 44.096C16.626 44.6191 17.001 44.381 17.2579 44.4279C17.3179 44.4391 17.3985 44.3248 17.4698 44.2666C17.3985 44.2085 17.3348 44.1091 17.2598 44.1016C17.0254 44.0791 16.776 44.1016 16.4498 44.1016L16.4385 44.096ZM16.5135 45.0747L16.4573 45.2116C16.5435 45.2791 16.6279 45.3991 16.716 45.3991C16.9626 45.3946 17.2087 45.3752 17.4529 45.341C17.4042 45.251 17.3648 45.0879 17.3067 45.0823C17.0458 45.0642 16.7842 45.0599 16.5229 45.0691L16.5135 45.0747Z" fill="#282425"/><path d="M17.6249 41.6836C17.3305 41.8711 17.1336 42.1111 16.9892 42.083C16.8947 42.0393 16.8124 41.973 16.7496 41.8899C16.6869 41.8068 16.6455 41.7096 16.6292 41.6067C16.618 41.4886 16.8936 41.2317 17.0267 41.2467C17.1974 41.2467 17.3492 41.468 17.6267 41.6836H17.6249Z" fill="#EFEEEE"/><path d="M17.6264 46.5C17.332 46.6875 17.1389 46.9144 16.9889 46.89C16.8945 46.8487 16.812 46.7843 16.7491 46.7027C16.6862 46.6211 16.6448 46.5249 16.6289 46.4231C16.6289 46.3031 16.8914 46.0481 17.0264 46.0631C17.1989 46.0631 17.3489 46.2825 17.6283 46.5019L17.6264 46.5Z" fill="#F4F4F4"/><path d="M16.984 42.9258L17.4846 43.1789C17.3327 43.2501 17.179 43.3814 17.0309 43.3795C16.8467 43.3466 16.6693 43.2832 16.5059 43.192L16.984 42.9258Z" fill="#E1E0E0"/><path d="M16.4531 44.0888C16.7794 44.0888 17.0287 44.0757 17.2744 44.0888C17.3475 44.0888 17.415 44.1957 17.4844 44.2538C17.4131 44.3101 17.3306 44.4226 17.2725 44.4151C17.0137 44.3757 16.6406 44.6026 16.4531 44.0907V44.0888ZM16.5281 45.0676C16.7932 45.0579 17.0585 45.0623 17.3231 45.0807C17.3812 45.0807 17.4206 45.2476 17.4694 45.3395C17.2251 45.3737 16.9791 45.3931 16.7325 45.3976C16.6444 45.3976 16.545 45.2738 16.4738 45.2101L16.5281 45.0676Z" fill="#F9F9F9"/><path d="M18.7992 46.1827L18.1786 46.4414L18.1055 46.2539L18.6867 46.0664L18.7992 46.1827Z" fill="#FCFDFD"/></g><defs><clipPath id="clip0_6960_3722"><rect width="179.184" height="21.7874" fill="white" transform="translate(10 37)"/></clipPath></defs></svg>