<svg width="96" height="96" viewBox="0 0 96 96" fill="none" xmlns="http://www.w3.org/2000/svg">
    <path opacity="0.4" d="M10.9993 74.6002C9.35927 74.6002 7.99927 73.2402 7.99927 71.6002V48.8002C7.79927 37.9602 11.8393 27.7202 19.3593 20.0402C26.8793 12.4002 36.9593 8.2002 47.7993 8.2002C69.9593 8.2002 87.9993 26.2402 87.9993 48.4002V71.2002C87.9993 72.8402 86.6393 74.2002 84.9993 74.2002C83.3593 74.2002 81.9993 72.8402 81.9993 71.2002V48.4002C81.9993 29.5602 66.6793 14.2002 47.7993 14.2002C38.5593 14.2002 29.9993 17.7602 23.6393 24.2402C17.2393 30.7602 13.8393 39.4402 13.9993 48.7202V71.5602C13.9993 73.2402 12.6793 74.6002 10.9993 74.6002Z" fill="#FF6600"/>
    <path d="M23.76 49.7998H23.24C14.84 49.7998 8 56.6398 8 65.0398V72.5598C8 80.9598 14.84 87.7998 23.24 87.7998H23.76C32.16 87.7998 39 80.9598 39 72.5598V65.0398C39 56.6398 32.16 49.7998 23.76 49.7998Z" fill="#FF6600"/>
    <path d="M72.76 49.7998H72.24C63.84 49.7998 57 56.6398 57 65.0398V72.5598C57 80.9598 63.84 87.7998 72.24 87.7998H72.76C81.16 87.7998 88 80.9598 88 72.5598V65.0398C88 56.6398 81.16 49.7998 72.76 49.7998Z" fill="#FF6600"/>
</svg>
