<svg width="96" height="96" viewBox="0 0 96 96" fill="none" xmlns="http://www.w3.org/2000/svg">
    <path d="M77.4788 19.5605L54.0387 9.12047C50.5988 7.60047 45.3987 7.60047 41.9587 9.12047L18.5188 19.5605C12.5988 22.2005 11.7188 25.8005 11.7188 27.7205C11.7188 29.6405 12.5988 33.2405 18.5188 35.8805L41.9587 46.3205C43.6787 47.0805 45.8387 47.4805 47.9987 47.4805C50.1587 47.4805 52.3187 47.0805 54.0387 46.3205L77.4788 35.8805C83.3988 33.2405 84.2787 29.6405 84.2787 27.7205C84.2787 25.8005 83.4388 22.2005 77.4788 19.5605Z" fill="#FF6600"/>
    <path opacity="0.4" d="M48.0013 68.16C46.4813 68.16 44.9613 67.84 43.5613 67.24L16.6013 55.24C12.4813 53.4 9.28125 48.48 9.28125 43.96C9.28125 42.32 10.6013 41 12.2413 41C13.8812 41 15.2013 42.32 15.2013 43.96C15.2013 46.12 17.0013 48.92 19.0013 49.8L45.9613 61.8C47.2412 62.36 48.7213 62.36 50.0013 61.8L76.9613 49.8C78.9613 48.92 80.7613 46.16 80.7613 43.96C80.7613 42.32 82.0813 41 83.7213 41C85.3613 41 86.6813 42.32 86.6813 43.96C86.6813 48.44 83.4813 53.4 79.3613 55.24L52.4013 67.24C51.0413 67.84 49.5213 68.16 48.0013 68.16Z" fill="#FF6600"/>
    <path opacity="0.4" d="M48.0013 87.9998C46.4813 87.9998 44.9613 87.6798 43.5613 87.0798L16.6013 75.0798C12.1613 73.1198 9.28125 68.6798 9.28125 63.7998C9.28125 62.1598 10.6013 60.8398 12.2413 60.8398C13.8812 60.8398 15.2013 62.1598 15.2013 63.7998C15.2013 66.3198 16.6813 68.5998 19.0013 69.6398L45.9613 81.6398C47.2412 82.1998 48.7213 82.1998 50.0013 81.6398L76.9613 69.6398C79.2412 68.6398 80.7613 66.3198 80.7613 63.7998C80.7613 62.1598 82.0813 60.8398 83.7213 60.8398C85.3613 60.8398 86.6813 62.1598 86.6813 63.7998C86.6813 68.6798 83.8013 73.0798 79.3613 75.0798L52.4013 87.0798C51.0413 87.6798 49.5213 87.9998 48.0013 87.9998Z" fill="#FF6600"/>
</svg>
