<svg width="96" height="96" viewBox="0 0 96 96" fill="none" xmlns="http://www.w3.org/2000/svg">
    <path opacity="0.4" d="M83.6394 44.4812C83.6394 64.0412 69.4394 82.3612 50.0394 87.7212C48.7194 88.0812 47.2794 88.0812 45.9594 87.7212C26.5594 82.3612 12.3594 64.0412 12.3594 44.4812V26.9212C12.3594 23.6412 14.8394 19.9212 17.9194 18.6812L40.1993 9.56125C45.1993 7.52125 50.8394 7.52125 55.8394 9.56125L78.1194 18.6812C81.1594 19.9212 83.6794 23.6412 83.6794 26.9212L83.6394 44.4812Z" fill="#FF6600"/>
    <path d="M58 42C58 36.48 53.52 32 48 32C42.48 32 38 36.48 38 42C38 46.48 40.96 50.2 45 51.48V62C45 63.64 46.36 65 48 65C49.64 65 51 63.64 51 62V51.48C55.04 50.2 58 46.48 58 42Z" fill="#FF6600"/>
</svg>
