<svg width="200" height="95" viewBox="0 0 200 95" fill="none" xmlns="http://www.w3.org/2000/svg"><rect width="200" height="95" fill="#FCFCFD"/><g clip-path="url(#clip0_6960_3714)"><path d="M74.7539 68.15H72.0039V66.8375H79.0415V68.15H76.2914V75.125H74.7539V68.15ZM84.754 72.45H79.7665C79.9415 73.3625 80.7165 73.95 81.8165 73.95C82.1334 73.9646 82.4498 73.912 82.7449 73.7956C83.0401 73.6793 83.3073 73.5019 83.529 73.275L84.329 74.1875C83.754 74.8625 82.8665 75.2125 81.779 75.2125C79.654 75.2125 78.2789 73.85 78.2789 71.9625C78.2789 70.075 79.704 68.75 81.579 68.75C83.429 68.75 84.779 70.0375 84.779 72.0125L84.754 72.4625V72.45ZM79.754 71.4625H83.354C83.2415 70.55 82.5415 69.925 81.5665 69.925C81.1284 69.9093 80.7004 70.0585 80.3671 70.3432C80.0337 70.6279 79.8194 71.0274 79.7665 71.4625H79.754ZM85.079 71.975C85.079 70.075 86.4915 68.75 88.504 68.75C89.729 68.75 90.7165 69.25 91.204 70.2125L90.054 70.875C89.679 70.275 89.1165 70 88.4915 70C87.3915 70 86.5665 70.75 86.5665 71.975C86.5665 73.2125 87.3915 73.95 88.4915 73.95C89.1165 73.95 89.679 73.675 90.054 73.075L91.204 73.7375C90.704 74.675 89.729 75.2125 88.504 75.2125C86.504 75.2125 85.079 73.875 85.079 71.975ZM98.0541 71.5125V75.1375H96.5791V71.7125C96.5791 70.5875 96.0291 70.0375 95.0791 70.0375C94.0166 70.0375 93.3041 70.675 93.3041 71.9375V75.1375H91.829V66.35H93.3041V69.55C93.7916 69.025 94.5416 68.7375 95.4166 68.7375C96.9291 68.7375 98.0541 69.6125 98.0541 71.5125ZM106.067 71.975C106.067 73.95 104.692 75.225 102.854 75.225C102.042 75.225 101.342 74.95 100.829 74.375V77.4375H99.3541V68.8125H100.754V69.6375C101.254 69.0375 101.992 68.7375 102.854 68.7375C103.284 68.7195 103.713 68.7915 104.113 68.9489C104.514 69.1064 104.877 69.3458 105.179 69.6518C105.482 69.9578 105.717 70.3237 105.87 70.7259C106.023 71.1281 106.09 71.5579 106.067 71.9875V71.975ZM104.567 71.975C104.567 70.7625 103.754 70 102.692 70C101.617 70 100.817 70.775 100.817 71.975C100.817 73.175 101.617 73.95 102.692 73.95C103.767 73.95 104.567 73.175 104.567 71.975ZM106.367 71.975C106.367 70.075 107.779 68.75 109.717 68.75C111.692 68.75 113.092 70.0875 113.092 71.975C113.092 73.875 111.692 75.225 109.717 75.225C107.779 75.225 106.367 73.875 106.367 71.975ZM111.617 71.975C111.617 70.7625 110.804 70 109.729 70C108.667 70 107.854 70.775 107.854 71.975C107.854 73.175 108.667 73.95 109.729 73.95C110.804 73.95 111.604 73.175 111.604 71.975H111.617ZM113.729 66.875C113.729 66.375 114.129 66 114.667 66C115.204 66 115.617 66.375 115.617 66.85C115.617 67.3625 115.229 67.775 114.667 67.775C114.129 67.775 113.729 67.3875 113.729 66.8875V66.875ZM113.929 68.8125H115.404V75.125H113.929V68.8125ZM123.004 71.5125V75.1375H121.504V71.7125C121.504 70.5875 120.954 70.0375 120.004 70.0375C118.954 70.0375 118.242 70.675 118.242 71.9375V75.1375H116.754V68.8125H118.154V69.6375C118.429 69.3381 118.766 69.1033 119.142 68.9498C119.518 68.7964 119.924 68.7281 120.329 68.75C121.854 68.7375 122.979 69.6 122.979 71.5125H123.004ZM128.092 74.8C127.676 75.093 127.175 75.2422 126.667 75.225C125.292 75.225 124.492 74.475 124.492 73.0875V70.0375H123.442V68.875H124.492V67.425H125.967V68.875H127.667V70.05H125.967V73.0625C125.967 73.6875 126.279 74.0125 126.842 74.0125C127.154 74.0125 127.454 73.925 127.679 73.75L128.092 74.8Z" fill="#1A1A1A"/><path d="M115.252 79.425V80.1H114.527V79.425H115.252ZM118.027 80.0375L117.902 80.1L117.777 80.1375L117.702 80.15H117.652C117.595 80.1508 117.537 80.1402 117.484 80.1187C117.43 80.0973 117.381 80.0654 117.34 80.025L117.24 79.9C117.202 79.85 117.19 79.8 117.165 79.7375C117.043 79.8784 116.895 79.9932 116.727 80.075L116.527 80.1375C116.34 80.1765 116.145 80.1635 115.965 80.1C115.865 80.0625 115.777 80 115.69 79.9375C115.614 79.868 115.554 79.7827 115.515 79.6875C115.465 79.5875 115.452 79.475 115.452 79.35C115.452 79.25 115.465 79.1625 115.515 79.0875C115.56 79.0032 115.624 78.9305 115.702 78.875L115.965 78.7375L116.265 78.625L116.577 78.5375L116.827 78.4375C116.896 78.4055 116.959 78.3633 117.015 78.3125C117.065 78.275 117.09 78.225 117.09 78.175C117.094 78.1228 117.082 78.0707 117.055 78.0258C117.028 77.981 116.988 77.9457 116.94 77.925C116.902 77.9125 116.852 77.8875 116.79 77.8875L116.627 77.875L116.465 77.8875L116.315 77.9625C116.277 77.9875 116.24 78.0375 116.215 78.0875C116.177 78.1375 116.165 78.2 116.152 78.2625H115.527C115.532 78.122 115.571 77.9848 115.64 77.8625C115.704 77.7492 115.79 77.65 115.893 77.5706C115.996 77.4911 116.114 77.4331 116.24 77.4C116.365 77.3625 116.49 77.3375 116.615 77.3375C116.765 77.3375 116.902 77.3625 117.04 77.3875C117.177 77.425 117.29 77.475 117.39 77.55C117.49 77.625 117.565 77.7 117.627 77.8C117.69 77.925 117.715 78.05 117.715 78.2V79.5C117.715 79.5375 117.727 79.5625 117.752 79.6C117.777 79.6375 117.802 79.6375 117.852 79.6375H117.902C117.927 79.6375 117.99 79.6125 118.027 79.575V80.025V80.0375ZM117.077 78.8125C117.04 78.8375 116.99 78.8625 116.915 78.875L116.715 78.9375L116.477 79L116.265 79.0875C116.202 79.1125 116.152 79.15 116.115 79.1875C116.077 79.225 116.065 79.2875 116.065 79.3375C116.065 79.3875 116.065 79.4375 116.09 79.4625C116.115 79.5125 116.127 79.5375 116.165 79.5625L116.265 79.625H116.365C116.49 79.625 116.615 79.5875 116.74 79.5125C116.865 79.4375 116.99 79.3 117.09 79.1375V78.8125H117.077ZM118.452 77.4125V76.875C118.452 76.7875 118.465 76.7125 118.502 76.65C118.539 76.5745 118.592 76.5077 118.657 76.4539C118.721 76.4 118.796 76.3604 118.877 76.3375C118.998 76.2979 119.126 76.2851 119.252 76.3L119.377 76.3125C119.427 76.3125 119.477 76.3375 119.54 76.3625L119.752 76.4375V76.9375L119.54 76.8625L119.402 76.825L119.315 76.8125H119.277L119.202 76.825L119.14 76.8625C119.115 76.875 119.102 76.9 119.102 76.925C119.077 76.9375 119.077 76.975 119.077 77V77.3875H119.577V77.9125H119.077V80.0875H118.452V77.9125H118.027V77.4L118.452 77.4125ZM119.752 77.4125H120.215L120.315 77.7375C120.39 77.6125 120.477 77.5125 120.565 77.45C120.652 77.3875 120.752 77.3625 120.852 77.3625L121.015 77.375L121.265 77.475V78.025L121.09 77.9625L120.977 77.9375H120.877C120.79 77.9375 120.727 77.9375 120.665 77.975L120.502 78.1C120.416 78.2197 120.372 78.3649 120.377 78.5125V80.125H119.74V77.4125H119.752ZM122.002 76.4125V77.0375H121.377V76.4125H122.002ZM122.002 77.4125V80.1H121.377V77.4125H122.002ZM124.065 78.375C124.015 78.2 123.952 78.0625 123.877 77.9875C123.79 77.9 123.69 77.8625 123.552 77.8625C123.465 77.8625 123.377 77.8875 123.302 77.9375C123.227 77.9875 123.165 78.05 123.102 78.125C122.997 78.3029 122.941 78.5057 122.94 78.7125C122.94 78.8375 122.965 78.9625 122.99 79.0625C123.036 79.2591 123.146 79.435 123.302 79.5625C123.377 79.625 123.465 79.65 123.552 79.65C123.615 79.65 123.677 79.6375 123.74 79.6C123.802 79.5625 123.852 79.525 123.89 79.475C123.94 79.4125 123.977 79.35 124.002 79.275L124.065 79.0375H124.715C124.69 79.2125 124.652 79.375 124.59 79.5125C124.534 79.6441 124.452 79.763 124.349 79.8619C124.246 79.9607 124.124 80.0375 123.99 80.0875C123.72 80.1839 123.425 80.1883 123.152 80.1C122.934 80.0298 122.745 79.8891 122.615 79.7C122.552 79.6125 122.49 79.5125 122.452 79.4125C122.363 79.1946 122.32 78.9604 122.327 78.725C122.327 78.525 122.352 78.35 122.415 78.175C122.477 78.0125 122.565 77.8625 122.665 77.7375C122.777 77.6125 122.915 77.525 123.052 77.4625C123.358 77.3313 123.703 77.3223 124.015 77.4375C124.14 77.4875 124.252 77.5625 124.352 77.65C124.44 77.7375 124.527 77.85 124.59 77.975C124.652 78.1 124.69 78.225 124.715 78.375H124.065ZM127.477 80.0375L127.34 80.1L127.227 80.1375L127.152 80.15H127.09C127.032 80.1508 126.975 80.1402 126.921 80.1187C126.868 80.0973 126.819 80.0654 126.777 80.025L126.677 79.9L126.602 79.7375C126.485 79.8771 126.34 79.9918 126.177 80.075L125.965 80.1375C125.782 80.1742 125.592 80.1612 125.415 80.1C125.29 80.0625 125.215 80 125.14 79.9375C125.059 79.8693 124.995 79.7839 124.952 79.6875C124.915 79.5875 124.89 79.475 124.89 79.35C124.89 79.25 124.915 79.1625 124.965 79.0875C125.01 79.0032 125.074 78.9305 125.152 78.875L125.402 78.7375C125.515 78.6875 125.602 78.65 125.715 78.625L126.015 78.5375L126.265 78.4375C126.338 78.4066 126.405 78.3644 126.465 78.3125C126.502 78.275 126.54 78.225 126.54 78.175C126.543 78.1214 126.529 78.0681 126.5 78.0231C126.471 77.9781 126.428 77.9437 126.377 77.925C126.34 77.9125 126.29 77.8875 126.227 77.8875L126.065 77.875L125.902 77.8875C125.852 77.9 125.802 77.925 125.765 77.9625C125.715 77.9875 125.677 78.0375 125.652 78.0875C125.627 78.1375 125.602 78.2 125.602 78.2625H124.965C124.97 78.122 125.008 77.9848 125.077 77.8625C125.142 77.7492 125.228 77.65 125.331 77.5706C125.434 77.4911 125.552 77.4331 125.677 77.4C125.802 77.3625 125.927 77.3375 126.065 77.3375C126.215 77.3375 126.352 77.3625 126.49 77.3875C126.615 77.425 126.74 77.475 126.827 77.55C126.915 77.625 127.015 77.7 127.077 77.8C127.127 77.925 127.152 78.05 127.152 78.2V79.5C127.152 79.5375 127.165 79.5625 127.19 79.6C127.215 79.6375 127.252 79.6375 127.29 79.6375H127.352C127.39 79.6375 127.427 79.6125 127.477 79.575V80.025V80.0375ZM126.515 78.8125L126.365 78.875L126.152 78.9375L125.927 79L125.715 79.0875C125.652 79.1125 125.59 79.15 125.565 79.1875C125.54 79.225 125.502 79.2875 125.502 79.3375C125.502 79.3875 125.502 79.4375 125.527 79.4625L125.602 79.5625L125.702 79.625H125.815C125.94 79.625 126.065 79.5875 126.19 79.5125C126.315 79.4375 126.427 79.3 126.527 79.1375V78.8125H126.515Z" fill="#3199D0"/><path d="M120.128 42.4129C120.128 51.8129 113.366 60.0004 104.103 61.8254C101.514 62.3672 98.8425 62.3908 96.2438 61.8949C93.6451 61.3989 91.1704 60.3933 88.9623 58.936C86.7543 57.4787 84.8567 55.5986 83.3791 53.4042C81.9014 51.2097 80.873 48.7444 80.353 46.1504C78.528 37.3254 83.2781 28.1504 91.6531 24.3254C92.4156 23.9504 92.4156 23.9504 92.6531 24.8129C93.3531 27.3754 94.0281 29.9629 94.7656 32.5129C94.8906 32.9379 94.8531 33.1504 94.4281 33.3879C92.6061 34.4992 91.1644 36.1375 90.2938 38.0861C89.4233 40.0347 89.165 42.2018 89.5531 44.3004C89.9659 46.4641 91.0402 48.4463 92.6277 49.9733C94.2152 51.5003 96.2376 52.4969 98.4157 52.8254C104.441 53.7379 110.041 49.4504 110.678 43.4129C110.934 40.7638 110.183 38.1156 108.576 35.9943C106.969 33.873 104.623 32.4339 102.003 31.9629C101.391 31.8754 100.791 31.7879 100.178 31.7879C99.9282 31.7879 99.8032 31.7254 99.7532 31.4504L97.4657 23.0129C97.3157 22.5004 97.7407 22.6254 97.9282 22.6254C99.364 22.4426 100.817 22.4426 102.253 22.6254C107.128 23.2004 111.291 25.2129 114.666 28.7754C118.177 32.4407 120.131 37.3246 120.116 42.4004L120.128 42.4129Z" fill="#3099CF"/><path d="M93.1776 41.8627C93.2401 39.9752 94.3026 38.0502 96.3776 36.6877C96.7026 36.4752 96.7651 36.2877 96.6776 35.9252C95.5526 31.7877 94.4276 27.6502 93.3276 23.4751C93.2616 23.2209 93.1005 23.0016 92.8776 22.8626L90.6776 21.6751C90.5504 21.6165 90.4382 21.5298 90.3494 21.4216C90.2607 21.3133 90.1976 21.1863 90.1651 21.0501C89.7526 19.5001 89.3651 18.0126 88.9401 16.5001C88.8151 16.1376 88.9401 16.0501 89.2776 15.8876C89.8026 15.7126 90.1526 15.8001 90.5901 16.1626C91.3776 16.8626 92.2276 17.5126 93.0526 18.1751C93.5151 18.5501 93.7901 18.4501 94.0026 17.9251L95.2526 14.6751C95.3776 14.3751 96.1901 13.9501 96.4651 14.0001C96.6151 14.0376 96.6151 14.1876 96.6526 14.3126L97.9276 19.0626C97.9516 19.1758 97.9529 19.2927 97.9315 19.4064C97.91 19.5201 97.8662 19.6285 97.8026 19.7251C97.3526 20.4626 96.9276 21.1876 96.4651 21.8876C96.3917 21.999 96.3456 22.126 96.3304 22.2585C96.3152 22.3909 96.3314 22.5251 96.3776 22.6501L99.7526 35.1377C99.8401 35.4627 99.9651 35.5877 100.328 35.5877C102.039 35.6328 103.673 36.313 104.912 37.4958C106.15 38.6786 106.904 40.2797 107.028 41.9877C107.144 43.7309 106.593 45.4532 105.485 46.8045C104.378 48.1557 102.797 49.0347 101.065 49.2627C96.8901 49.8877 93.1776 46.6752 93.1776 41.8627Z" fill="#3199CF"/></g><defs><clipPath id="clip0_6960_3714"><rect width="56.0879" height="66.1626" fill="white" transform="translate(72 14)"/></clipPath></defs></svg>