<svg width="200" height="95" viewBox="0 0 200 95" fill="none" xmlns="http://www.w3.org/2000/svg"><rect width="200" height="95" fill="#FCFCFD"/><path d="M44.9324 57.2233C44.4114 57.2233 43.9927 57.093 43.6763 56.8325C43.36 56.5534 43.1273 56.1533 42.9785 55.6322L38.3727 39.5259C38.261 39.0793 38.2517 38.6978 38.3448 38.3815C38.4564 38.0465 38.6518 37.786 38.931 37.5999C39.2101 37.4138 39.5451 37.3207 39.9359 37.3207C40.3825 37.3207 40.7547 37.4324 41.0524 37.6557C41.3502 37.879 41.5735 38.2884 41.7223 38.8839L45.7698 53.8178H44.5696L53.5578 38.5769C53.8183 38.1302 54.0975 37.8139 54.3952 37.6278C54.693 37.4231 55.0745 37.3207 55.5397 37.3207C56.0235 37.3207 56.3957 37.4324 56.6563 37.6557C56.9354 37.879 57.0936 38.1675 57.1308 38.521C57.168 38.8746 57.0657 39.2468 56.8237 39.6376L46.9981 55.9393C46.7375 56.3859 46.4491 56.7116 46.1327 56.9163C45.8164 57.121 45.4163 57.2233 44.9324 57.2233ZM59.6241 57.2791C58.7866 57.2791 58.0237 57.093 57.3351 56.7209C56.6466 56.3301 56.0883 55.8183 55.6603 55.1856C55.2509 54.5529 55.0462 53.8457 55.0462 53.0641C55.0462 52.0965 55.316 51.3149 55.8557 50.7194C56.3954 50.1053 57.2328 49.6494 58.3679 49.3516C59.5031 49.0539 60.9546 48.905 62.7225 48.905H64.9556L64.6486 50.9148H62.89C61.792 50.9148 60.9174 50.9706 60.2661 51.0823C59.6148 51.1939 59.1495 51.3893 58.8704 51.6685C58.5913 51.9476 58.4517 52.3384 58.4517 52.8408C58.4517 53.4922 58.6657 53.9946 59.0937 54.3482C59.5403 54.7018 60.08 54.8785 60.7127 54.8785C61.3082 54.8785 61.8479 54.7576 62.3317 54.5157C62.8155 54.2551 63.225 53.8923 63.5599 53.427C63.8949 52.9432 64.1089 52.3756 64.2019 51.7243L64.7323 48.4025C64.8812 47.5279 64.7416 46.858 64.3136 46.3927C63.9042 45.9275 63.1784 45.6949 62.1363 45.6949C61.5222 45.6949 60.9267 45.76 60.3498 45.8903C59.7729 46.0019 59.1774 46.1973 58.5633 46.4765C58.2098 46.6254 57.8934 46.6719 57.6143 46.616C57.3351 46.5602 57.1025 46.4393 56.9164 46.2532C56.7489 46.0485 56.6559 45.8158 56.6373 45.5553C56.6187 45.2762 56.6931 45.0063 56.8606 44.7458C57.0467 44.4853 57.3444 44.262 57.7538 44.0759C58.5354 43.7223 59.3449 43.4711 60.1823 43.3222C61.0384 43.1547 61.8386 43.071 62.5829 43.071C64.0531 43.071 65.2068 43.3408 66.0442 43.8805C66.8817 44.4202 67.4492 45.1552 67.747 46.0857C68.0447 47.0161 68.1006 48.0769 67.9145 49.2679L66.9375 55.4927C66.8631 56.0695 66.6584 56.5069 66.3234 56.8046C66.007 57.0837 65.579 57.2233 65.0394 57.2233C64.5369 57.2233 64.1554 57.0651 63.8949 56.7488C63.653 56.4138 63.5785 55.93 63.6716 55.2973L63.9507 53.5387L64.1461 54.097C63.8856 54.8227 63.5134 55.4275 63.0296 55.9114C62.5643 56.3766 62.034 56.7209 61.4385 56.9442C60.8616 57.1675 60.2568 57.2791 59.6241 57.2791ZM71.9585 57.1954C71.4188 57.1954 71.0187 57.0186 70.7582 56.665C70.5163 56.2928 70.4418 55.7904 70.5349 55.1577L72.1539 44.8575C72.2469 44.2806 72.4609 43.8526 72.7959 43.5734C73.1495 43.2757 73.6054 43.1268 74.1637 43.1268C74.6848 43.1268 75.0662 43.285 75.3082 43.6013C75.5501 43.9177 75.6245 44.3922 75.5315 45.025L75.2523 46.8114L75.1407 46.1136C75.6059 45.1273 76.2665 44.3736 77.1226 43.8526C77.9972 43.3315 79.0207 43.071 80.1931 43.071C81.198 43.071 82.0354 43.2757 82.7053 43.6851C83.3939 44.0945 83.8777 44.7272 84.1569 45.5832C84.4546 46.4206 84.5011 47.5 84.2964 48.8212L83.2636 55.4647C83.1892 56.0416 82.9752 56.4789 82.6216 56.7767C82.2866 57.0558 81.8307 57.1954 81.2538 57.1954C80.7141 57.1954 80.314 57.0186 80.0535 56.665C79.793 56.2928 79.7092 55.7904 79.8023 55.1577L80.8072 48.8771C80.9747 47.8536 80.8909 47.0906 80.556 46.5881C80.2396 46.0671 79.6534 45.8065 78.7974 45.8065C77.6994 45.8065 76.8155 46.1508 76.1456 46.8394C75.4943 47.5279 75.0755 48.4677 74.8895 49.6587L73.9683 55.4647C73.8008 56.6185 73.1309 57.1954 71.9585 57.1954ZM92.9765 62.3036C91.86 62.3036 90.7993 62.1734 89.7944 61.9128C88.8081 61.6709 87.9427 61.336 87.1984 60.9079C86.882 60.7218 86.668 60.4892 86.5564 60.2101C86.4447 59.9496 86.4168 59.689 86.4726 59.4285C86.5284 59.168 86.6494 58.9354 86.8355 58.7307C87.0216 58.5446 87.2542 58.4236 87.5333 58.3678C87.8125 58.3306 88.1195 58.405 88.4545 58.5911C89.05 58.9074 89.6827 59.1587 90.3526 59.3448C91.0412 59.5495 91.7483 59.6518 92.4741 59.6518C93.5906 59.6518 94.4932 59.4006 95.1817 58.8981C95.8703 58.3957 96.3076 57.5862 96.4937 56.4696L96.9403 53.8178L97.1636 53.8457C96.717 54.7576 96.0657 55.4554 95.2096 55.9393C94.3536 56.4231 93.3952 56.665 92.3345 56.665C91.2366 56.665 90.2782 56.4417 89.4594 55.9951C88.6406 55.5485 87.9986 54.9065 87.5333 54.069C87.0867 53.213 86.8634 52.2081 86.8634 51.0543C86.8634 49.9936 87.0216 48.9794 87.3379 48.0117C87.6729 47.0441 88.1381 46.1973 88.7336 45.4716C89.3477 44.7272 90.0828 44.141 90.9388 43.713C91.7949 43.285 92.7532 43.071 93.814 43.071C94.8933 43.071 95.8331 43.3222 96.6333 43.8247C97.4521 44.3271 98.0196 45.0715 98.336 46.0578L98.001 46.8394L98.3081 44.8016C98.4011 44.2248 98.6151 43.8061 98.9501 43.5455C99.2851 43.2664 99.7317 43.1268 100.29 43.1268C100.83 43.1268 101.211 43.3036 101.434 43.6572C101.676 44.0108 101.751 44.5132 101.658 45.1645L99.8992 56.2742C99.6014 58.2282 98.8757 59.7169 97.7219 60.7405C96.5681 61.7826 94.9863 62.3036 92.9765 62.3036ZM93.4232 54.0132C94.2978 54.0132 95.0329 53.7806 95.6284 53.3154C96.2425 52.8315 96.7077 52.1988 97.024 51.4172C97.3404 50.617 97.4986 49.761 97.4986 48.8492C97.4986 47.8815 97.2288 47.1185 96.6891 46.5602C96.168 46.0019 95.4144 45.7228 94.4281 45.7228C93.572 45.7228 92.837 45.9647 92.2229 46.4486C91.6274 46.9138 91.1714 47.5372 90.8551 48.3188C90.5387 49.1004 90.3806 49.9471 90.3806 50.859C90.3806 51.8452 90.6411 52.6175 91.1621 53.1758C91.7018 53.7341 92.4555 54.0132 93.4232 54.0132ZM108.288 57.2791C107.32 57.2791 106.492 57.0744 105.803 56.665C105.115 56.2556 104.622 55.6229 104.324 54.7669C104.045 53.9109 104.008 52.8222 104.212 51.501L105.301 44.7458C105.394 44.1875 105.599 43.7781 105.915 43.5176C106.231 43.2571 106.659 43.1268 107.199 43.1268C107.776 43.1268 108.195 43.2943 108.455 43.6293C108.734 43.9456 108.827 44.4202 108.734 45.0529L107.729 51.4731C107.581 52.4966 107.655 53.2595 107.953 53.762C108.269 54.2644 108.846 54.5157 109.683 54.5157C110.726 54.5157 111.572 54.1714 112.224 53.4829C112.875 52.7943 113.294 51.8545 113.48 50.6636L114.401 44.7458C114.494 44.1875 114.699 43.7781 115.015 43.5176C115.331 43.2571 115.759 43.1268 116.299 43.1268C116.894 43.1268 117.323 43.2943 117.583 43.6293C117.844 43.9642 117.927 44.4481 117.834 45.0808L116.187 55.5764C116.02 56.6743 115.387 57.2233 114.289 57.2233C113.75 57.2233 113.349 57.0744 113.089 56.7767C112.828 56.4789 112.735 56.023 112.81 55.4089L113.089 53.3991L113.284 54.1528C112.8 55.1763 112.121 55.9579 111.247 56.4976C110.391 57.0186 109.404 57.2791 108.288 57.2791ZM124.229 57.2791C123.392 57.2791 122.629 57.093 121.94 56.7209C121.252 56.3301 120.694 55.8183 120.266 55.1856C119.856 54.5529 119.651 53.8457 119.651 53.0641C119.651 52.0965 119.921 51.3149 120.461 50.7194C121.001 50.1053 121.838 49.6494 122.973 49.3516C124.108 49.0539 125.56 48.905 127.328 48.905H129.561L129.254 50.9148H127.495C126.397 50.9148 125.523 50.9706 124.871 51.0823C124.22 51.1939 123.755 51.3893 123.476 51.6685C123.197 51.9476 123.057 52.3384 123.057 52.8408C123.057 53.4922 123.271 53.9946 123.699 54.3482C124.146 54.7018 124.685 54.8785 125.318 54.8785C125.914 54.8785 126.453 54.7576 126.937 54.5157C127.421 54.2551 127.83 53.8923 128.165 53.427C128.5 52.9432 128.714 52.3756 128.807 51.7243L129.338 48.4025C129.486 47.5279 129.347 46.858 128.919 46.3927C128.509 45.9275 127.784 45.6949 126.742 45.6949C126.128 45.6949 125.532 45.76 124.955 45.8903C124.378 46.0019 123.783 46.1973 123.169 46.4765C122.815 46.6254 122.499 46.6719 122.22 46.616C121.94 46.5602 121.708 46.4393 121.522 46.2532C121.354 46.0485 121.261 45.8158 121.243 45.5553C121.224 45.2762 121.298 45.0063 121.466 44.7458C121.652 44.4853 121.95 44.262 122.359 44.0759C123.141 43.7223 123.95 43.4711 124.788 43.3222C125.644 43.1547 126.444 43.071 127.188 43.071C128.658 43.071 129.812 43.3408 130.65 43.8805C131.487 44.4202 132.055 45.1552 132.352 46.0857C132.65 47.0161 132.706 48.0769 132.52 49.2679L131.543 55.4927C131.468 56.0695 131.264 56.5069 130.929 56.8046C130.612 57.0837 130.184 57.2233 129.645 57.2233C129.142 57.2233 128.761 57.0651 128.5 56.7488C128.258 56.4138 128.184 55.93 128.277 55.2973L128.556 53.5387L128.751 54.097C128.491 54.8227 128.119 55.4275 127.635 55.9114C127.17 56.3766 126.639 56.7209 126.044 56.9442C125.467 57.1675 124.862 57.2791 124.229 57.2791ZM136.564 57.2233C136.006 57.2233 135.596 57.0558 135.336 56.7209C135.094 56.3673 135.019 55.8741 135.112 55.2414L136.759 44.8016C136.852 44.2434 137.066 43.8247 137.401 43.5455C137.736 43.2664 138.174 43.1268 138.713 43.1268C139.253 43.1268 139.644 43.2943 139.886 43.6293C140.146 43.9642 140.23 44.4481 140.137 45.0808L139.886 46.644H139.606C139.979 45.546 140.593 44.6993 141.449 44.1038C142.305 43.4897 143.319 43.1454 144.491 43.071C145.012 43.0338 145.357 43.1082 145.524 43.2943C145.71 43.4804 145.803 43.7874 145.803 44.2155C145.803 44.8296 145.664 45.2855 145.385 45.5832C145.105 45.8624 144.668 46.0299 144.073 46.0857L143.263 46.1694C142.016 46.2997 141.123 46.6812 140.583 47.3139C140.044 47.928 139.681 48.7933 139.495 49.9099L138.602 55.5485C138.527 56.1068 138.313 56.5255 137.959 56.8046C137.625 57.0837 137.159 57.2233 136.564 57.2233ZM150.961 57.2791C149.938 57.2791 149.035 57.0372 148.254 56.5534C147.491 56.0695 146.895 55.3903 146.467 54.5157C146.039 53.6224 145.825 52.5803 145.825 51.3893C145.825 49.8261 146.095 48.4211 146.635 47.1743C147.193 45.9089 147.984 44.9133 149.007 44.1875C150.05 43.4432 151.278 43.071 152.692 43.071C153.734 43.071 154.655 43.3222 155.456 43.8247C156.256 44.3271 156.814 45.0715 157.13 46.0578L156.935 46.0299L158.08 38.7443C158.173 38.1675 158.387 37.7487 158.722 37.4882C159.056 37.2277 159.512 37.0974 160.089 37.0974C160.629 37.0974 161.02 37.2649 161.262 37.5999C161.522 37.9348 161.606 38.428 161.513 39.0793L158.917 55.4368C158.824 56.0137 158.61 56.4603 158.275 56.7767C157.94 57.0744 157.484 57.2233 156.907 57.2233C156.367 57.2233 155.977 57.0372 155.735 56.665C155.511 56.2742 155.456 55.7625 155.567 55.1298L155.818 53.5945L155.846 54.4319C155.344 55.3066 154.674 56.0044 153.837 56.5255C152.999 57.0279 152.041 57.2791 150.961 57.2791ZM152.329 54.6273C153.185 54.6273 153.902 54.3854 154.479 53.9016C155.074 53.3991 155.53 52.7385 155.846 51.9197C156.163 51.0823 156.321 50.1518 156.321 49.1283C156.321 48.0303 156.051 47.1929 155.511 46.616C154.99 46.0206 154.265 45.7228 153.334 45.7228C152.497 45.7228 151.78 45.9647 151.185 46.4486C150.589 46.9324 150.133 47.593 149.817 48.4304C149.501 49.2493 149.342 50.1797 149.342 51.2218C149.342 52.3198 149.603 53.1665 150.124 53.762C150.664 54.3389 151.399 54.6273 152.329 54.6273Z" fill="#121111"/></svg>